  0
SECTION
  2
HEADER
  9
$ACADVER
  1
AC1014
  9
$HANDSEED
  5
FFFF
  9
$MEASUREMENT
 70
     1
  0
ENDSEC
  0
SECTION
  2
TABLES
  0
TABLE
  2
VPORT
  5
8
330
0
100
AcDbSymbolTable
 70
     4
  0
VPORT
  5
2E
330
8
100
AcDbSymbolTableRecord
100
AcDbViewportTableRecord
  2
*ACTIVE
 70
     0
 10
0.0
 20
0.0
 11
1.0
 21
1.0
 12
210.0
 22
148.5
 13
0.0
 23
0.0
 14
10.0
 24
10.0
 15
10.0
 25
10.0
 16
0.0
 26
0.0
 36
1.0
 17
0.0
 27
0.0
 37
0.0
 40
341.0
 41
1.24
 42
50.0
 43
0.0
 44
0.0
 50
0.0
 51
0.0
 71
     0
 72
   100
 73
     1
 74
     3
 75
     0
 76
     0
 77
     0
 78
     0
  0
ENDTAB
  0
TABLE
  2
LTYPE
  5
5
330
0
100
AcDbSymbolTable
 70
     1
  0
LTYPE
  5
14
330
5
100
AcDbSymbolTableRecord
100
AcDbLinetypeTableRecord
  2
BYBLOCK
 70
     0
  3

 72
    65
 73
     0
 40
0.0
  0
LTYPE
  5
15
330
5
100
AcDbSymbolTableRecord
100
AcDbLinetypeTableRecord
  2
BYLAYER
 70
     0
  3

 72
    65
 73
     0
 40
0.0
  0
LTYPE
  5
16
330
5
100
AcDbSymbolTableRecord
100
AcDbLinetypeTableRecord
  2
CONTINUOUS
 70
     0
  3
Solid line
 72
    65
 73
     0
 40
0.0
  0
ENDTAB
  0
TABLE
  2
LAYER
  5
2
100
AcDbSymbolTable
 70
2
  0
LAYER
  5
50
100
AcDbSymbolTableRecord
100
AcDbLayerTableRecord
  2
0
 70
0
  6
CONTINUOUS
  0
LAYER
  5
51
100
AcDbSymbolTableRecord
100
AcDbLayerTableRecord
  2
Layer_1
 70
0
  6
CONTINUOUS
  0
ENDTAB
  0
TABLE
  2
STYLE
  5
3
330
0
100
AcDbSymbolTable
 70
     1
  0
STYLE
  5
11
330
3
100
AcDbSymbolTableRecord
100
AcDbTextStyleTableRecord
  2
STANDARD
 70
     0
 40
0.0
 41
1.0
 50
0.0
 71
     0
 42
2.5
  3
txt
  4

  0
ENDTAB
  0
TABLE
  2
VIEW
  5
6
330
0
100
AcDbSymbolTable
 70
     0
  0
ENDTAB
  0
TABLE
  2
UCS
  5
7
330
0
100
AcDbSymbolTable
 70
     0
  0
ENDTAB
  0
TABLE
  2
APPID
  5
9
330
0
100
AcDbSymbolTable
 70
     2
  0
APPID
  5
12
330
9
100
AcDbSymbolTableRecord
100
AcDbRegAppTableRecord
  2
ACAD
 70
     0
  0
ENDTAB
  0
TABLE
  2
DIMSTYLE
  5
A
330
0
100
AcDbSymbolTable
 70
     1
  0
DIMSTYLE
105
27
330
A
100
AcDbSymbolTableRecord
100
AcDbDimStyleTableRecord
  2
ISO-25
 70
     0
  3

  4

  5

  6

  7

 40
1.0
 41
2.5
 42
0.625
 43
3.75
 44
1.25
 45
0.0
 46
0.0
 47
0.0
 48
0.0
140
2.5
141
2.5
142
0.0
143
0.03937007874016
144
1.0
145
0.0
146
1.0
147
0.625
 71
     0
 72
     0
 73
     0
 74
     0
 75
     0
 76
     0
 77
     1
 78
     8
170
     0
171
     3
172
     1
173
     0
174
     0
175
     0
176
     0
177
     0
178
     0
270
     2
271
     2
272
     2
273
     2
274
     3
340
11
275
     0
280
     0
281
     0
282
     0
283
     0
284
     8
285
     0
286
     0
287
     3
288
     0
  0
ENDTAB
  0
TABLE
  2
BLOCK_RECORD
  5
1
330
0
100
AcDbSymbolTable
 70
     1
  0
BLOCK_RECORD
  5
1F
330
1
100
AcDbSymbolTableRecord
100
AcDbBlockTableRecord
  2
*MODEL_SPACE
  0
BLOCK_RECORD
  5
1B
330
1
100
AcDbSymbolTableRecord
100
AcDbBlockTableRecord
  2
*PAPER_SPACE
  0
ENDTAB
  0
ENDSEC
  0
SECTION
  2
BLOCKS
  0
BLOCK
  5
20
330
1F
100
AcDbEntity
  8
0
100
AcDbBlockBegin
  2
*MODEL_SPACE
 70
     0
 10
0.0
 20
0.0
 30
0.0
  3
*MODEL_SPACE
  1

  0
ENDBLK
  5
21
330
1F
100
AcDbEntity
  8
0
100
AcDbBlockEnd
  0
BLOCK
  5
1C
330
1B
100
AcDbEntity
 67
     1
  8
0
100
AcDbBlockBegin
  2
*PAPER_SPACE
  1

  0
ENDBLK
  5
1D
330
1B
100
AcDbEntity
 67
     1
  8
0
100
AcDbBlockEnd
  0
ENDSEC
  0
SECTION
  2
ENTITIES
  0
LWPOLYLINE
  5
100
100
AcDbEntity
  8
Layer_1
 62
7
100
AcDbPolyline
 90
15
 70
0
 10
283.465200
 20
411.023604
 30
0.0
 10
306.141736
 20
411.023604
 30
0.0
 10
306.141736
 20
416.692884
 30
0.0
 10
311.811024
 20
416.692884
 30
0.0
 10
311.811024
 20
425.196884
 30
0.0
 10
323.149608
 20
425.196884
 30
0.0
 10
323.149608
 20
416.692884
 30
0.0
 10
328.818896
 20
416.692884
 30
0.0
 10
328.818896
 20
411.023604
 30
0.0
 10
351.496720
 20
411.023604
 30
0.0
 10
351.496720
 20
113.385844
 30
0.0
 10
385.511840
 20
113.385844
 30
0.0
 10
385.511840
 20
96.377924
 30
0.0
 10
351.496720
 20
96.377924
 30
0.0
 10
351.496720
 20
0.000324
 30
0.0
  0
LWPOLYLINE
  5
101
100
AcDbEntity
  8
Layer_1
 62
7
100
AcDbPolyline
 90
25
 70
0
 10
317.480960
 20
229.748644
 30
0.0
 10
316.710560
 20
229.647204
 30
0.0
 10
315.992720
 20
229.349844
 30
0.0
 10
315.376320
 20
228.876884
 30
0.0
 10
314.903280
 20
228.260404
 30
0.0
 10
314.606000
 20
227.542564
 30
0.0
 10
314.504560
 20
226.772244
 30
0.0
 10
314.606000
 20
226.001924
 30
0.0
 10
314.903280
 20
225.284084
 30
0.0
 10
315.376320
 20
224.667604
 30
0.0
 10
315.992720
 20
224.194644
 30
0.0
 10
316.710560
 20
223.897284
 30
0.0
 10
317.480960
 20
223.795844
 30
0.0
 10
318.251280
 20
223.897284
 30
0.0
 10
318.969120
 20
224.194644
 30
0.0
 10
319.585520
 20
224.667604
 30
0.0
 10
320.058560
 20
225.284084
 30
0.0
 10
320.355920
 20
226.001924
 30
0.0
 10
320.457280
 20
226.772244
 30
0.0
 10
320.355920
 20
227.542564
 30
0.0
 10
320.058560
 20
228.260404
 30
0.0
 10
319.585520
 20
228.876884
 30
0.0
 10
318.969120
 20
229.349844
 30
0.0
 10
318.251280
 20
229.647204
 30
0.0
 10
317.480960
 20
229.748644
 30
0.0
  0
LWPOLYLINE
  5
102
100
AcDbEntity
  8
Layer_1
 62
7
100
AcDbPolyline
 90
7
 70
0
 10
334.488800
 20
207.071444
 30
0.0
 10
333.718480
 20
206.970004
 30
0.0
 10
333.000640
 20
206.672724
 30
0.0
 10
332.384160
 20
206.199684
 30
0.0
 10
331.911200
 20
205.583284
 30
0.0
 10
331.613840
 20
204.865444
 30
0.0
 10
331.512400
 20
204.095044
 30
0.0
  0
LWPOLYLINE
  5
103
100
AcDbEntity
  8
Layer_1
 62
7
100
AcDbPolyline
 90
7
 70
0
 10
337.465200
 20
204.095044
 30
0.0
 10
337.363760
 20
204.865444
 30
0.0
 10
337.066400
 20
205.583284
 30
0.0
 10
336.593440
 20
206.199684
 30
0.0
 10
335.976960
 20
206.672724
 30
0.0
 10
335.259120
 20
206.970004
 30
0.0
 10
334.488800
 20
207.071444
 30
0.0
  0
LWPOLYLINE
  5
104
100
AcDbEntity
  8
Layer_1
 62
7
100
AcDbPolyline
 90
7
 70
0
 10
300.473040
 20
207.071444
 30
0.0
 10
299.702720
 20
206.970004
 30
0.0
 10
298.984880
 20
206.672724
 30
0.0
 10
298.368480
 20
206.199684
 30
0.0
 10
297.895440
 20
205.583284
 30
0.0
 10
297.598080
 20
204.865444
 30
0.0
 10
297.496720
 20
204.095044
 30
0.0
  0
LWPOLYLINE
  5
105
100
AcDbEntity
  8
Layer_1
 62
7
100
AcDbPolyline
 90
7
 70
0
 10
303.449440
 20
204.095044
 30
0.0
 10
303.348000
 20
204.865444
 30
0.0
 10
303.050640
 20
205.583284
 30
0.0
 10
302.577680
 20
206.199684
 30
0.0
 10
301.961280
 20
206.672724
 30
0.0
 10
301.243440
 20
206.970004
 30
0.0
 10
300.473040
 20
207.071444
 30
0.0
  0
LWPOLYLINE
  5
106
100
AcDbEntity
  8
Layer_1
 62
7
100
AcDbPolyline
 90
3
 70
0
 10
334.488800
 20
368.503924
 30
0.0
 10
300.473040
 20
368.503924
 30
0.0
 10
300.473040
 20
238.110244
 30
0.0
  0
LWPOLYLINE
  5
107
100
AcDbEntity
  8
Layer_1
 62
7
100
AcDbPolyline
 90
2
 70
0
 10
300.473040
 20
238.110804
 30
0.0
 10
334.488800
 20
238.110804
 30
0.0
  0
LWPOLYLINE
  5
108
100
AcDbEntity
  8
Layer_1
 62
7
100
AcDbPolyline
 90
2
 70
0
 10
334.488800
 20
238.110244
 30
0.0
 10
334.488800
 20
368.503924
 30
0.0
  0
LWPOLYLINE
  5
109
100
AcDbEntity
  8
Layer_1
 62
7
100
AcDbPolyline
 90
2
 70
0
 10
283.464880
 20
0.000324
 30
0.0
 10
283.464880
 20
411.023604
 30
0.0
  0
LWPOLYLINE
  5
10a
100
AcDbEntity
  8
Layer_1
 62
7
100
AcDbPolyline
 90
4
 70
0
 10
319.585520
 20
179.313284
 30
0.0
 10
318.969120
 20
178.840324
 30
0.0
 10
318.251280
 20
178.542964
 30
0.0
 10
317.480960
 20
178.441524
 30
0.0
  0
LWPOLYLINE
  5
10b
100
AcDbEntity
  8
Layer_1
 62
7
100
AcDbPolyline
 90
19
 70
0
 10
315.376320
 20
179.313284
 30
0.0
 10
314.903280
 20
179.929764
 30
0.0
 10
314.606000
 20
180.647604
 30
0.0
 10
314.504560
 20
181.417924
 30
0.0
 10
314.606000
 20
182.188244
 30
0.0
 10
314.903280
 20
182.906084
 30
0.0
 10
315.376320
 20
183.522564
 30
0.0
 10
315.992720
 20
183.995524
 30
0.0
 10
316.710560
 20
184.292884
 30
0.0
 10
317.480960
 20
184.394324
 30
0.0
 10
318.251280
 20
184.292884
 30
0.0
 10
318.969120
 20
183.995524
 30
0.0
 10
319.585520
 20
183.522564
 30
0.0
 10
320.058560
 20
182.906084
 30
0.0
 10
320.355920
 20
182.188244
 30
0.0
 10
320.457280
 20
181.417924
 30
0.0
 10
320.355920
 20
180.647604
 30
0.0
 10
320.058560
 20
179.929764
 30
0.0
 10
319.585520
 20
179.313284
 30
0.0
  0
LWPOLYLINE
  5
10c
100
AcDbEntity
  8
Layer_1
 62
7
100
AcDbPolyline
 90
4
 70
0
 10
317.480960
 20
178.441524
 30
0.0
 10
316.710560
 20
178.542964
 30
0.0
 10
315.992720
 20
178.840324
 30
0.0
 10
315.376320
 20
179.313284
 30
0.0
  0
LWPOLYLINE
  5
10d
100
AcDbEntity
  8
Layer_1
 62
7
100
AcDbPolyline
 90
7
 70
0
 10
334.488800
 20
201.118724
 30
0.0
 10
333.718480
 20
201.220084
 30
0.0
 10
333.000640
 20
201.517444
 30
0.0
 10
332.384160
 20
201.990484
 30
0.0
 10
331.911200
 20
202.606884
 30
0.0
 10
331.613840
 20
203.324724
 30
0.0
 10
331.512400
 20
204.095044
 30
0.0
  0
LWPOLYLINE
  5
10e
100
AcDbEntity
  8
Layer_1
 62
7
100
AcDbPolyline
 90
7
 70
0
 10
337.465200
 20
204.095044
 30
0.0
 10
337.363760
 20
203.324724
 30
0.0
 10
337.066400
 20
202.606884
 30
0.0
 10
336.593440
 20
201.990484
 30
0.0
 10
335.976960
 20
201.517444
 30
0.0
 10
335.259120
 20
201.220084
 30
0.0
 10
334.488800
 20
201.118724
 30
0.0
  0
LWPOLYLINE
  5
10f
100
AcDbEntity
  8
Layer_1
 62
7
100
AcDbPolyline
 90
7
 70
0
 10
300.473040
 20
201.118724
 30
0.0
 10
299.702720
 20
201.220084
 30
0.0
 10
298.984880
 20
201.517444
 30
0.0
 10
298.368480
 20
201.990484
 30
0.0
 10
297.895440
 20
202.606884
 30
0.0
 10
297.598080
 20
203.324724
 30
0.0
 10
297.496720
 20
204.095044
 30
0.0
  0
LWPOLYLINE
  5
110
100
AcDbEntity
  8
Layer_1
 62
7
100
AcDbPolyline
 90
7
 70
0
 10
303.449440
 20
204.095044
 30
0.0
 10
303.348000
 20
203.324724
 30
0.0
 10
303.050640
 20
202.606884
 30
0.0
 10
302.577680
 20
201.990484
 30
0.0
 10
301.961280
 20
201.517444
 30
0.0
 10
301.243440
 20
201.220084
 30
0.0
 10
300.473040
 20
201.118724
 30
0.0
  0
LWPOLYLINE
  5
111
100
AcDbEntity
  8
Layer_1
 62
7
100
AcDbPolyline
 90
3
 70
0
 10
334.488800
 20
39.685364
 30
0.0
 10
300.473040
 20
39.685364
 30
0.0
 10
300.473040
 20
170.078724
 30
0.0
  0
LWPOLYLINE
  5
112
100
AcDbEntity
  8
Layer_1
 62
7
100
AcDbPolyline
 90
2
 70
0
 10
300.473040
 20
170.079364
 30
0.0
 10
334.488800
 20
170.079044
 30
0.0
  0
SPLINE
  5
113
100
AcDbEntity
  8
Layer_1
 62
7
100
AcDbSpline
 70
8
 71
3
 72
8
 73
4
 74
0
 40
0
 40
0
 40
0
 40
0
 40
1
 40
1
 40
1
 40
1
 10
283.465200
 20
0.000324
 30
0.0
 10
290.110344
 20
0.048324
 30
0.0
 10
299.498464
 20
0.131524
 30
0.0
 10
306.141736
 20
0.000004
 30
0.0
  0
LWPOLYLINE
  5
114
100
AcDbEntity
  8
Layer_1
 62
7
100
AcDbPolyline
 90
2
 70
0
 10
334.488800
 20
170.078724
 30
0.0
 10
334.488800
 20
39.685364
 30
0.0
  0
LWPOLYLINE
  5
115
100
AcDbEntity
  8
Layer_1
 62
7
100
AcDbPolyline
 90
9
 70
0
 10
306.141736
 20
0.000004
 30
0.0
 10
306.141736
 20
-5.669276
 30
0.0
 10
311.811024
 20
-5.669276
 30
0.0
 10
311.811024
 20
-14.173196
 30
0.0
 10
323.149608
 20
-14.173196
 30
0.0
 10
323.149608
 20
-5.669276
 30
0.0
 10
328.818896
 20
-5.669276
 30
0.0
 10
328.818896
 20
0.000324
 30
0.0
 10
351.496720
 20
0.000324
 30
0.0
  0
LWPOLYLINE
  5
116
100
AcDbEntity
  8
Layer_1
 62
7
100
AcDbPolyline
 90
25
 70
0
 10
317.480960
 20
214.724964
 30
0.0
 10
314.729680
 20
214.362804
 30
0.0
 10
312.166000
 20
213.300884
 30
0.0
 10
309.964480
 20
211.611604
 30
0.0
 10
308.275120
 20
209.410004
 30
0.0
 10
307.213200
 20
206.846324
 30
0.0
 10
306.851040
 20
204.095044
 30
0.0
 10
307.213200
 20
201.343844
 30
0.0
 10
308.275120
 20
198.780084
 30
0.0
 10
309.964480
 20
196.578564
 30
0.0
 10
312.166000
 20
194.889284
 30
0.0
 10
314.729680
 20
193.827364
 30
0.0
 10
317.480960
 20
193.465124
 30
0.0
 10
320.232160
 20
193.827364
 30
0.0
 10
322.795920
 20
194.889284
 30
0.0
 10
324.997440
 20
196.578564
 30
0.0
 10
326.686720
 20
198.780084
 30
0.0
 10
327.748640
 20
201.343844
 30
0.0
 10
328.110880
 20
204.095044
 30
0.0
 10
327.748640
 20
206.846324
 30
0.0
 10
326.686720
 20
209.410004
 30
0.0
 10
324.997440
 20
211.611604
 30
0.0
 10
322.795920
 20
213.300884
 30
0.0
 10
320.232160
 20
214.362804
 30
0.0
 10
317.480960
 20
214.724964
 30
0.0
  0
LWPOLYLINE
  5
117
100
AcDbEntity
  8
Layer_1
 62
7
100
AcDbPolyline
 90
2
 70
0
 10
765.629360
 20
422.187684
 30
0.0
 10
771.298640
 20
422.187684
 30
0.0
  0
LWPOLYLINE
  5
118
100
AcDbEntity
  8
Layer_1
 62
7
100
AcDbPolyline
 90
2
 70
0
 10
850.394000
 20
185.981444
 30
0.0
 10
918.425200
 20
185.981444
 30
0.0
  0
LWPOLYLINE
  5
119
100
AcDbEntity
  8
Layer_1
 62
7
100
AcDbPolyline
 90
2
 70
0
 10
918.425200
 20
85.039684
 30
0.0
 10
850.394000
 20
85.039684
 30
0.0
  0
LWPOLYLINE
  5
11a
100
AcDbEntity
  8
Layer_1
 62
7
100
AcDbPolyline
 90
2
 70
0
 10
765.629360
 20
432.959364
 30
0.0
 10
708.936480
 20
432.959364
 30
0.0
  0
LWPOLYLINE
  5
11b
100
AcDbEntity
  8
Layer_1
 62
7
100
AcDbPolyline
 90
2
 70
0
 10
822.322240
 20
-13.780796
 30
0.0
 10
652.243520
 20
-13.780796
 30
0.0
  0
LWPOLYLINE
  5
11c
100
AcDbEntity
  8
Layer_1
 62
7
100
AcDbPolyline
 90
2
 70
0
 10
850.394000
 20
300.472804
 30
0.0
 10
839.622320
 20
300.472804
 30
0.0
  0
LWPOLYLINE
  5
11d
100
AcDbEntity
  8
Layer_1
 62
7
100
AcDbPolyline
 90
2
 70
0
 10
708.936480
 20
422.187684
 30
0.0
 10
708.936480
 20
432.959364
 30
0.0
  0
LWPOLYLINE
  5
11e
100
AcDbEntity
  8
Layer_1
 62
7
100
AcDbPolyline
 90
2
 70
0
 10
822.322240
 20
-3.009116
 30
0.0
 10
822.322240
 20
-13.780796
 30
0.0
  0
LWPOLYLINE
  5
11f
100
AcDbEntity
  8
Layer_1
 62
7
100
AcDbPolyline
 90
4
 70
0
 10
856.063600
 20
170.079044
 30
0.0
 10
856.063600
 20
180.850724
 30
0.0
 10
912.756400
 20
180.850724
 30
0.0
 10
912.756400
 20
170.079044
 30
0.0
  0
LWPOLYLINE
  5
120
100
AcDbEntity
  8
Layer_1
 62
7
100
AcDbPolyline
 90
2
 70
0
 10
771.298640
 20
422.187684
 30
0.0
 10
839.330160
 20
-3.009116
 30
0.0
  0
LWPOLYLINE
  5
121
100
AcDbEntity
  8
Layer_1
 62
7
100
AcDbPolyline
 90
2
 70
0
 10
827.716880
 20
487.559364
 30
0.0
 10
963.779280
 20
487.559364
 30
0.0
  0
LWPOLYLINE
  5
122
100
AcDbEntity
  8
Layer_1
 62
7
100
AcDbPolyline
 90
2
 70
0
 10
912.756400
 20
170.079044
 30
0.0
 10
856.063600
 20
170.079044
 30
0.0
  0
LWPOLYLINE
  5
123
100
AcDbEntity
  8
Layer_1
 62
7
100
AcDbPolyline
 90
2
 70
0
 10
827.716880
 20
283.464884
 30
0.0
 10
827.716880
 20
487.559364
 30
0.0
  0
LWPOLYLINE
  5
124
100
AcDbEntity
  8
Layer_1
 62
7
100
AcDbPolyline
 90
2
 70
0
 10
963.779280
 20
283.464884
 30
0.0
 10
827.716880
 20
283.464884
 30
0.0
  0
LWPOLYLINE
  5
125
100
AcDbEntity
  8
Layer_1
 62
7
100
AcDbPolyline
 90
2
 70
0
 10
963.779280
 20
487.559364
 30
0.0
 10
963.779280
 20
283.464884
 30
0.0
  0
LWPOLYLINE
  5
126
100
AcDbEntity
  8
Layer_1
 62
7
100
AcDbPolyline
 90
2
 70
0
 10
850.394000
 20
85.039684
 30
0.0
 10
850.394000
 20
185.981444
 30
0.0
  0
LWPOLYLINE
  5
127
100
AcDbEntity
  8
Layer_1
 62
7
100
AcDbPolyline
 90
2
 70
0
 10
703.267120
 20
422.187684
 30
0.0
 10
635.235680
 20
-3.009116
 30
0.0
  0
LWPOLYLINE
  5
128
100
AcDbEntity
  8
Layer_1
 62
7
100
AcDbPolyline
 90
2
 70
0
 10
918.425200
 20
185.981444
 30
0.0
 10
918.425200
 20
85.039684
 30
0.0
  0
LWPOLYLINE
  5
129
100
AcDbEntity
  8
Layer_1
 62
7
100
AcDbPolyline
 90
2
 70
0
 10
822.322240
 20
-3.009116
 30
0.0
 10
839.330160
 20
-3.009116
 30
0.0
  0
LWPOLYLINE
  5
12a
100
AcDbEntity
  8
Layer_1
 62
7
100
AcDbPolyline
 90
2
 70
0
 10
850.394000
 20
470.551524
 30
0.0
 10
850.394000
 20
453.543684
 30
0.0
  0
LWPOLYLINE
  5
12b
100
AcDbEntity
  8
Layer_1
 62
7
100
AcDbPolyline
 90
2
 70
0
 10
839.622320
 20
470.551524
 30
0.0
 10
850.394000
 20
470.551524
 30
0.0
  0
LWPOLYLINE
  5
12c
100
AcDbEntity
  8
Layer_1
 62
7
100
AcDbPolyline
 90
2
 70
0
 10
708.936480
 20
422.187684
 30
0.0
 10
703.267120
 20
422.187684
 30
0.0
  0
LWPOLYLINE
  5
12d
100
AcDbEntity
  8
Layer_1
 62
7
100
AcDbPolyline
 90
2
 70
0
 10
652.243520
 20
-3.009116
 30
0.0
 10
652.243520
 20
-13.780796
 30
0.0
  0
LWPOLYLINE
  5
12e
100
AcDbEntity
  8
Layer_1
 62
7
100
AcDbPolyline
 90
2
 70
0
 10
839.622320
 20
300.472804
 30
0.0
 10
839.622320
 20
470.551524
 30
0.0
  0
LWPOLYLINE
  5
12f
100
AcDbEntity
  8
Layer_1
 62
7
100
AcDbPolyline
 90
3
 70
0
 10
850.394000
 20
453.543684
 30
0.0
 10
850.394000
 20
317.480644
 30
0.0
 10
850.394000
 20
300.472804
 30
0.0
  0
LWPOLYLINE
  5
130
100
AcDbEntity
  8
Layer_1
 62
7
100
AcDbPolyline
 90
2
 70
0
 10
652.243520
 20
-3.009116
 30
0.0
 10
635.235680
 20
-3.009116
 30
0.0
  0
LWPOLYLINE
  5
131
100
AcDbEntity
  8
Layer_1
 62
7
100
AcDbPolyline
 90
2
 70
0
 10
765.629360
 20
422.187684
 30
0.0
 10
765.629360
 20
432.959364
 30
0.0
  0
LWPOLYLINE
  5
132
100
AcDbEntity
  8
Layer_1
 62
7
100
AcDbPolyline
 90
5
 70
1
 10
1017.425680
 20
349.108644
 30
0.0
 10
1080.459280
 20
349.108644
 30
0.0
 10
1080.459280
 20
4.848660
 30
0.0
 10
1017.425680
 20
4.848660
 30
0.0
 10
1017.425680
 20
349.108644
 30
0.0
  0
LWPOLYLINE
  5
133
100
AcDbEntity
  8
Layer_1
 62
7
100
AcDbPolyline
 90
5
 70
1
 10
675.899520
 20
157.208084
 30
0.0
 10
799.135336
 20
157.208084
 30
0.0
 10
799.135336
 20
57.734516
 30
0.0
 10
675.899520
 20
57.734516
 30
0.0
 10
675.899520
 20
157.208084
 30
0.0
  0
ENDSEC
  0
SECTION
  2
OBJECTS
  0
DICTIONARY
  5
C
330
0
100
AcDbDictionary
  3
ACAD_GROUP
350
D
  3
ACAD_MLINESTYLE
350
17
  0
DICTIONARY
  5
D
330
C
100
AcDbDictionary
  0
DICTIONARY
  5
1A
330
C
100
AcDbDictionary
  0
DICTIONARY
  5
17
330
C
100
AcDbDictionary
  3
STANDARD
350
18
  0
DICTIONARY
  5
19
330
C
100
AcDbDictionary
  0
ENDSEC
  0
EOF
