<?xml version="1.0" encoding="UTF-8"?>
<!DOCTYPE svg PUBLIC "-//W3C//DTD SVG 1.1//EN" "http://www.w3.org/Graphics/SVG/1.1/DTD/svg11.dtd">
<!-- Creator: CorelDRAW X8 -->
<svg xmlns="http://www.w3.org/2000/svg" xml:space="preserve" width="1220mm" height="610mm" version="1.1" shape-rendering="geometricPrecision" text-rendering="geometricPrecision" image-rendering="optimizeQuality" fill-rule="evenodd" clip-rule="evenodd"
viewBox="0 0 122000 61000"
 xmlns:xlink="http://www.w3.org/1999/xlink">
 <g id="Слой_x0020_1">
  <metadata id="CorelCorpID_0Corel-Layer"/>
  <path fill="none" stroke="#D000FF" stroke-width="7.62" d="M8596 5528c-4,99 -12,196 -24,289 -1,11 -2,21 -4,32l0 1048 3 -7c10,-19 19,-39 27,-59l0 -1408c0,35 -1,70 -2,105zm-28 321c-7,56 -16,111 -26,165l-4 21 0 925 3 -6c10,-19 19,-38 27,-57l0 -1048zm-30 186c-8,41 -16,83 -26,123l-4 16 0 846 3 -6c9,-18 19,-36 27,-54l0 -925zm-30 139c-8,34 -17,69 -26,102l-4 13 0 788 3 -5c9,-18 18,-35 27,-52l0 -846zm-30 115c-8,30 -17,60 -26,89l-4 11 0 743 3 -5c9,-17 18,-33 27,-50l0 -788zm-30 100c-8,27 -17,53 -26,79l-4 10 0 706 3 -4c9,-16 18,-32 27,-48l0 -743zm-30 89c-8,24 -17,48 -26,72l-4 9 0 676 3 -5c9,-15 18,-30 27,-46l0 -706zm-30 81c-8,22 -17,44 -26,67l-4 7 0 651 3 -5c9,-15 18,-29 27,-44l0 -676zm-30 74c-8,21 -17,42 -26,62l-4 8 0 627 3 -4 1 -1c9,-14 18,-28 26,-41l0 -651zm-30 70c-8,19 -17,39 -26,58l-4 7 0 608 3 -4c9,-14 18,-28 27,-42l0 -627zm-30 65c-8,18 -17,36 -27,55l-3 6 0 590 3 -4c9,-13 18,-26 27,-39l0 -608zm-30 61c-8,17 -17,35 -27,52l-3 6 0 574 3 -4c9,-12 18,-25 27,-38l0 -590zm-30 58c-8,17 -17,33 -27,50l-3 5 0 559 3 -3c9,-12 18,-25 27,-37l0 -574zm-30 55c-8,16 -18,32 -27,48l-3 5 0 546 3 -3c9,-12 18,-25 27,-37l0 -559zm-30 53c-9,16 -18,31 -27,47l-3 4 0 533 3 -3c9,-12 18,-24 27,-35l0 -546zm-30 51c-9,15 -18,30 -27,45l-3 5 0 520 3 -3c9,-11 18,-23 27,-34l0 -533zm-30 50c-9,14 -18,28 -27,43l-3 4 0 509 3 -3c9,-11 18,-22 27,-33l0 -520zm-30 47c-9,14 -18,28 -27,42l-3 4 0 498 3 -3c9,-10 18,-21 27,-32l0 -509zm-30 46c-9,13 -18,27 -27,40l-3 4 0 488 3 -2c9,-11 18,-21 27,-32l0 -498zm-30 44c-9,13 -18,27 -27,40l-3 4 0 478 3 -3c9,-10 18,-20 27,-31l0 -488zm-30 44l-11 16c-5,6 -10,13 -16,21l-3 4 0 470 3 -3c9,-10 18,-20 27,-30l0 -478zm-30 41c-8,11 -17,23 -27,35l-3 4 0 462 3 -2c9,-10 18,-20 27,-29l0 -470zm-30 39c-8,11 -17,22 -27,34l-3 4 0 456 3 -3c9,-9 18,-19 27,-29l0 -462zm-30 38c-8,11 -18,22 -27,34l-3 3 0 449 3 -2c9,-10 18,-19 27,-28l0 -456zm-30 37c-9,11 -18,22 -27,33l-3 3 0 443 3 -2c9,-9 18,-19 27,-28l0 -449zm-30 36c-9,11 -18,22 -27,33l-3 3 0 436 3 -2c9,-9 18,-18 27,-27l0 -443zm-30 36c-9,11 -18,22 -27,32l-3 3 0 429 2 -2c10,-8 19,-17 28,-26l0 -436zm-30 35c-9,11 -19,21 -27,30l-3 3 0 424 2 -2c10,-9 19,-17 28,-26l0 -429zm-30 33c-10,11 -19,21 -27,29l-3 2 0 420 2 -2c10,-8 19,-17 28,-25l0 -424zm-30 31c-4,4 -8,8 -12,11l-15 15 -3 2 0 418 2 -1c10,-9 19,-17 28,-25l0 -420zm-30 28l-27 27 -3 2 0 415 2 -2c10,-7 19,-16 28,-24l0 -418zm-30 29l-27 27 -3 2 0 411 2 -1c10,-8 19,-16 28,-24l0 -415zm-30 29l-27 27 -3 2 0 407 2 -2c10,-7 19,-15 28,-23l0 -411zm-30 29l-27 27 -3 2 0 402 2 -2c10,-7 19,-15 28,-22l0 -407zm-30 29l-27 27 -3 2 0 396 2 -2c10,-7 19,-14 28,-21l0 -402zm-30 29l-27 27 -3 2 0 389 2 -1c10,-7 19,-14 28,-21l0 -396zm-30 29l-5 5c-6,6 -14,13 -22,21l-3 1 0 384 2 -1c10,-7 19,-14 28,-21l0 -389zm-30 27c-8,8 -17,16 -27,24l-3 2 0 380 2 -2c10,-6 19,-13 28,-20l0 0 0 -384zm-30 26c-8,7 -18,14 -27,22l-3 2 0 377 2 -2c10,-6 19,-13 28,-19l0 -380zm-30 24c-9,7 -18,14 -27,22l-3 1 0 374 2 -1c10,-6 19,-13 28,-19l0 -377zm-30 23c-9,7 -18,14 -27,22l-3 1 0 371 2 -1c10,-6 19,-12 28,-19l0 -374zm-30 23c-9,7 -18,14 -28,21l-2 2 0 368 2 -1c10,-6 19,-12 28,-19l0 -371zm-30 23c-9,7 -18,14 -28,21l-2 1 0 366 2 -1c10,-6 19,-13 28,-19l0 -368zm-30 22c-9,7 -18,14 -28,21l-2 1 0 363 2 -1c10,-6 19,-12 28,-18l0 -366zm-30 22c-9,7 -19,14 -28,20l-2 2 0 360 2 -2c10,-5 19,-11 28,-17l0 -363zm-30 22c-9,7 -19,13 -28,19l-2 2 0 357 2 -1c10,-6 19,-12 28,-17l0 -360zm-30 21c-10,7 -19,13 -28,19l-2 1 0 355 2 -1c10,-6 19,-11 28,-17l0 -357zm-30 20l-11 8c-6,4 -11,7 -17,11l-2 1 0 352 2 -1c10,-5 19,-11 28,-16l0 -355zm-30 20c-9,6 -18,12 -28,17l-2 2 0 351 2 -1c10,-6 19,-11 28,-17l0 -352zm-30 19c-9,6 -18,11 -28,17l-2 1 0 349 2 -1c9,-5 19,-10 28,-15l0 -351zm-30 18c-9,6 -18,11 -28,17l-2 1 0 348 2 -1c9,-5 19,-10 28,-16l0 -349zm-30 18c-9,6 -18,11 -28,17l-2 1 0 346 2 -1c9,-5 19,-10 28,-15l0 -348zm-30 18c-9,5 -18,11 -28,16l-2 1 0 345 2 -1c9,-5 19,-10 28,-15l0 -346zm-30 17c-9,5 -18,10 -28,16l-2 1 0 343 2 -1c9,-5 19,-9 28,-14l0 -345zm-30 17c-9,5 -18,10 -28,15l-2 1 0 342 2 -1c9,-4 19,-9 28,-14l0 -343zm-30 16c-9,5 -18,10 -28,15l-2 1 0 341 2 -1c9,-5 19,-9 28,-14l0 -342zm-30 16c-9,5 -18,10 -28,15l-2 1 0 339 2 -1c9,-4 19,-9 28,-13l0 -341zm-30 16c-9,4 -18,9 -28,14l-2 1 0 338 2 -1c9,-4 19,-9 28,-13l0 -339zm-30 15c-9,5 -18,9 -28,14l-2 1 0 336 2 0c9,-4 19,-9 28,-13l0 -338zm-30 15c-9,4 -18,9 -28,13l-2 1 0 336 2 -1c9,-4 19,-8 28,-13l0 -336zm-30 14c-9,5 -18,9 -28,13l-2 1 0 335 2 -1c9,-4 19,-8 28,-12l0 -336zm-30 14c-9,4 -18,9 -28,13l-2 1 0 333 2 -1c9,-3 19,-7 28,-11l0 -335zm-30 14c-9,4 -18,8 -28,12l-2 1 0 332 2 0c9,-4 19,-8 28,-12l0 -333zm-30 13c-9,4 -18,8 -28,12l-2 1 0 331 2 0c9,-4 19,-8 28,-12l0 -332zm-30 13c-9,4 -18,8 -28,12l-2 1 0 330 2 -1c9,-4 19,-7 28,-11l0 -331zm-30 13c-9,4 -18,7 -28,11l-2 1 0 329 2 -1c9,-3 19,-7 28,-10l0 -330zm-30 12c-9,4 -18,7 -28,11l-2 1 0 328 2 -1c9,-3 19,-7 28,-10l0 -329zm-30 12c-9,4 -18,7 -28,11l-2 0 0 327 2 0c9,-4 19,-7 28,-10l0 -328zm-30 11c-9,4 -18,8 -28,11l-2 1 0 325 2 0c9,-3 19,-6 28,-10l0 -327zm-30 12c-9,3 -18,7 -28,10l-2 1 0 324 2 0c9,-3 19,-6 28,-10l0 -325zm-30 11c-9,3 -18,6 -28,10l-2 0 0 324 2 -1c9,-3 19,-6 28,-9l0 -324zm-30 10c-9,3 -18,7 -28,10l-2 0 0 323 2 0c9,-3 19,-6 28,-9l0 -324zm-30 10c-9,4 -18,7 -28,10l-2 0 0 322 2 0c9,-3 19,-6 28,-9l0 -323zm-30 10c-9,3 -18,6 -28,9l-2 1 0 321 2 -1c9,-2 19,-5 28,-8l0 -322zm-30 10c-9,3 -18,6 -28,9l-2 0 0 320 2 0c9,-3 19,-6 28,-8l0 -321zm-30 9c-9,3 -19,6 -28,9l-2 0 0 319 2 0c9,-3 19,-5 28,-8l0 -320zm-30 9c-9,3 -19,6 -28,8l-2 1 0 318 2 0c9,-3 19,-5 28,-8l0 -319zm-30 9c-9,3 -19,5 -28,8l-2 0 0 317 2 0c9,-2 19,-5 28,-7l0 -318zm-30 8c-9,3 -19,5 -28,8l-2 0 0 317 2 -1c9,-2 19,-4 28,-7l0 -317zm-30 8c-9,3 -19,5 -28,7l-2 1 0 315 2 0c9,-2 19,-4 28,-6l0 -317zm-30 8c-9,2 -19,5 -28,7l-2 0 0 315 2 0c9,-2 19,-4 28,-7l0 -315zm-30 7c-9,3 -19,5 -28,7l-2 0 0 314 2 0c9,-2 19,-4 28,-6l0 -315zm-30 7c-9,3 -19,5 -28,7l-2 0 0 313 2 0c9,-2 19,-4 28,-6l0 -314zm-30 7c-9,2 -19,4 -28,6l-2 1 0 312 2 0c9,-2 19,-4 28,-6l0 -313zm-30 7c-9,2 -19,4 -28,6l-2 0 0 312 2 -1c9,-1 19,-3 28,-5l0 -312zm-30 6c-9,2 -19,4 -28,6l-2 0 0 311 2 0c9,-2 19,-4 28,-5l0 -312zm-30 6c-9,2 -19,3 -28,5l-2 0 0 311 2 0c9,-2 19,-4 28,-5l0 -311zm-30 5c-9,2 -19,4 -28,6l-2 0 0 309 2 0c9,-1 19,-3 28,-4l0 -311zm-30 6c-9,1 -19,3 -28,5l-2 0 0 309 2 0c9,-2 19,-3 28,-5l0 -309zm-30 5c-9,1 -19,3 -28,4l-2 1 0 308 2 0c9,-1 19,-3 28,-4l0 -309zm-30 5c-9,1 -19,2 -28,4l-2 0 0 308 2 0c9,-1 19,-3 28,-4l0 -308zm-30 4c-9,1 -19,3 -28,4l-2 0 0 308 2 0c9,-2 19,-3 28,-4l0 -308zm-30 4c-9,1 -19,3 -28,4l-2 0 0 307 2 0c9,-1 19,-2 28,-3l0 -308zm-30 4c-9,1 -19,2 -28,3l-2 1 0 306 2 0c9,-1 19,-2 28,-3l0 -307zm-30 4c-9,1 -19,2 -28,3l-2 0 0 306 2 0c9,-1 19,-2 28,-3l0 -306zm-30 3c-9,1 -19,2 -28,3l-2 0 0 306 2 0c9,-1 19,-2 28,-3l0 -306zm-30 3c-9,1 -19,2 -28,3l-2 0 0 306 2 0c9,-1 19,-2 28,-3l0 -306zm-30 3c-9,1 -19,1 -28,2l-2 0 0 306 2 0c9,-1 19,-2 28,-2l0 -306zm-30 2c-9,1 -19,2 -28,2l-2 0 0 306 2 0c9,-1 19,-1 28,-2l0 -306zm-30 2c-9,1 -19,2 -28,2l-2 0 0 306 2 0c9,-1 19,-1 28,-2l0 -306zm-30 2c-9,1 -19,1 -28,2l-2 0 0 305 2 0c9,0 19,-1 28,-1l0 -306zm-30 2c-9,0 -19,1 -28,1l-2 0 0 306 2 0 10 -1 18 -1 0 -305zm-30 1c-9,1 -19,1 -28,1l-2 0 0 306 2 0c9,0 19,-1 28,-1l0 -306zm-30 1c-9,0 -19,1 -28,1l-2 0 0 306 2 0c9,-1 19,-1 28,-1l0 -306zm-30 1c-9,0 -19,0 -28,0l-2 0 0 306 2 0c9,0 19,0 28,0l0 -306zm-30 0c-9,1 -19,1 -28,1l-2 0 0 305 2 0c9,0 19,0 28,0l0 -306zm-30 1c-9,0 -19,0 -28,0l-2 0 0 305 2 0c9,0 19,0 28,0l0 -305zm-30 0c-9,-1 -19,-1 -28,-1l-2 0 0 306 2 0c9,0 19,0 28,0l0 -305zm-30 -1c-9,0 -19,0 -28,0l-2 -1 0 306 2 0c9,1 19,1 28,1l0 -306zm-30 -1c-9,0 -19,0 -28,0l-2 0 0 306 2 0c9,0 19,0 28,0l0 -306zm-30 0c-9,-1 -19,-1 -28,-2l-2 0 0 306 2 0c9,1 19,1 28,2l0 -306zm-30 -2c-9,0 -19,-1 -28,-1l-2 0 0 306 2 0c9,0 19,1 28,1l0 -306zm-30 -1c-9,-1 -19,-1 -28,-2l-2 0 0 306 2 0c9,1 19,1 28,2l0 -306zm-30 -2c-9,-1 -19,-1 -28,-2l-2 0 0 306 2 0c9,1 19,2 28,2l0 -306zm-30 -2c-9,-1 -19,-1 -28,-2l-2 0 0 306 2 0c9,1 19,2 28,2l0 -306zm-30 -2c-9,-1 -19,-2 -28,-3l-2 0 0 306 2 1c9,0 19,1 28,2l0 -306zm-30 -3c-9,-1 -19,-2 -28,-3l-2 0 0 307 2 0c9,1 19,2 28,2l0 -306zm-30 -3c-9,-1 -19,-2 -28,-3l-2 0 0 307 2 0c9,1 19,2 28,3l0 -307zm-30 -3c-9,-1 -19,-2 -28,-4l-2 0 0 307 2 0c9,1 19,3 28,4l0 -307zm-30 -4c-9,-1 -19,-2 -28,-3l-2 -1 0 308 2 0c9,1 19,2 28,3l0 -307zm-30 -4c-9,-1 -19,-2 -28,-3l-2 -1 0 308 2 0c9,1 19,2 28,4l0 -308zm-30 -4c-9,-1 -19,-2 -28,-4l-2 0 0 308 2 0c9,1 19,2 28,4l0 -308zm-30 -4c-9,-2 -19,-3 -28,-5l-2 0 0 308 2 0c9,2 19,3 28,5l0 -308zm-30 -5c-9,-1 -19,-3 -28,-5l-2 0 0 308 2 1c9,1 19,3 28,4l0 -308zm-30 -5c-9,-1 -19,-3 -28,-5l-2 0 0 308 2 1c9,1 19,3 28,4l0 -308zm-30 -5c-9,-2 -19,-4 -28,-5l-2 -1 0 309 2 0c9,2 19,4 28,5l0 -308zm-30 -6c-9,-2 -19,-3 -28,-5l-2 -1 0 310 2 0c9,2 19,3 28,5l0 -309zm-30 -6c-9,-2 -19,-4 -28,-6l-2 0 0 310 2 0c9,2 19,4 28,6l0 -310zm-30 -6c-9,-2 -19,-4 -28,-6l-2 0 0 310 2 0c9,2 19,4 28,6l0 -310zm-30 -6c-9,-2 -19,-5 -28,-7l-2 0 0 310 2 1c9,2 19,4 28,6l0 -310zm-30 -7c-9,-2 -19,-5 -28,-7l-2 0 0 311 2 0c9,2 19,4 28,6l0 -310zm-30 -7c-9,-3 -19,-5 -28,-7l-2 -1 0 312 2 0c9,2 19,5 28,7l0 -311zm-30 -8c-9,-2 -19,-5 -28,-7l-2 -1 0 313 2 0c9,2 19,5 28,7l0 -312zm-30 -8c-9,-2 -19,-5 -28,-7l-2 -1 0 313 2 0c9,3 19,5 28,8l0 -313zm-30 -8c-9,-2 -19,-5 -28,-8l-2 0 0 313 2 1c9,2 19,5 28,7l0 -313zm-30 -8c-9,-3 -19,-6 -28,-8l-2 -1 0 314 2 1c9,2 19,5 28,7l0 -313zm-30 -9c-9,-3 -19,-5 -28,-8l-2 -1 0 315 2 0c9,3 19,6 28,8l0 -314zm-30 -9c-9,-3 -19,-6 -28,-9l-2 0 0 315 2 1c9,3 19,5 28,8l0 -315zm-30 -9c-9,-3 -19,-6 -28,-9l-2 -1 0 316 2 1c9,3 19,6 28,8l0 -315zm-30 -10c-9,-3 -18,-6 -28,-9l-2 -1 0 317 2 1c9,3 19,6 28,8l0 -316zm-30 -10c-9,-3 -19,-6 -28,-10l-2 0 0 318 2 0c9,3 19,6 28,9l0 -317zm-30 -10c-9,-4 -18,-7 -28,-10l-2 -1 0 319 2 0c9,4 19,7 28,10l0 -318zm-30 -11c-9,-3 -18,-7 -28,-10l-2 -1 0 320 2 0c9,4 19,7 28,10l0 -319zm-30 -11c-9,-4 -18,-7 -28,-11l-2 -1 0 322 2 0c9,3 19,7 28,10l0 -320zm-30 -12c-9,-3 -18,-7 -28,-11l-2 0 0 322 2 0c9,4 19,7 28,11l0 -322zm-30 -11c-9,-4 -18,-8 -28,-12l-2 0 0 323 2 0c9,4 19,7 28,11l0 -322zm-30 -12c-9,-4 -18,-8 -28,-12l-2 -1 0 325 2 0c9,4 19,7 28,11l0 -323zm-30 -13c-9,-4 -18,-8 -28,-12l-2 -1 0 326 2 1c9,3 19,7 28,11l0 -325zm-30 -13c-9,-4 -18,-8 -28,-12l-2 -1 0 327 2 1c9,4 19,7 28,11l0 -326zm-30 -13c-9,-4 -18,-8 -28,-13l-2 -1 0 329 2 1c9,3 19,7 28,11l0 -327zm-30 -14c-9,-4 -18,-8 -28,-13l-2 -1 0 330 2 1c9,4 19,8 28,12l0 -329zm-30 -14c-9,-4 -18,-8 -28,-13l-2 -1 0 332 2 0c9,4 19,8 28,12l0 -330zm-30 -14c-9,-4 -18,-9 -28,-14l-2 -1 0 333 2 1c9,4 19,8 28,13l0 -332zm-30 -15c-9,-4 -18,-9 -28,-14l-2 -1 0 335 2 1c9,4 19,8 28,12l0 -333zm-30 -15c-9,-5 -18,-9 -28,-14l-2 -1 0 336 2 1c9,4 19,9 28,13l0 -335zm-30 -15c-9,-5 -18,-10 -28,-15l-2 -1 0 338 2 1c9,4 19,9 28,13l0 -336zm-30 -16c-9,-5 -18,-11 -28,-16l-2 -1 0 340 2 1c9,5 19,9 28,14l0 -338zm-30 -17c-9,-5 -18,-10 -28,-15l-2 -2 0 342 2 1c9,5 19,10 28,14l0 -340zm-30 -17c-9,-5 -18,-10 -28,-16l-2 -1 0 344 2 1c9,5 19,10 28,14l0 -342zm-30 -17c-9,-5 -18,-11 -28,-16l-2 -1 0 345 2 1c9,5 19,10 28,15l0 -344zm-30 -17c-9,-6 -18,-12 -28,-17l-2 -2 0 348 2 1c9,5 19,10 28,15l0 -345zm-30 -19c-9,-5 -18,-11 -28,-17l-2 -1 0 350 2 1c9,5 19,10 28,15l0 -348zm-30 -18c-9,-6 -18,-12 -28,-18l-2 -1 0 352 2 1c9,6 19,11 28,16l0 -350zm-30 -19c-9,-6 -18,-12 -28,-19l-2 -1 0 355 2 1c9,5 19,11 28,16l0 -352zm-30 -20c-9,-6 -18,-12 -28,-18l-2 -2 0 357 2 2c9,5 19,11 28,16l0 -355zm-30 -20c-9,-6 -18,-13 -28,-19l-2 -1 0 359 2 2c9,5 19,11 28,16l0 -357zm-30 -20c-9,-7 -18,-13 -28,-20l-2 -1 0 362 2 1c10,6 19,12 28,17l0 -359zm-30 -21c-9,-7 -18,-14 -28,-20l-2 -2 0 365 2 1c10,6 19,12 28,18l0 -362zm-30 -22c-9,-7 -18,-14 -28,-21l-2 -1 0 368 2 1c10,6 19,12 28,18l0 -365zm-30 -22c-9,-7 -18,-14 -28,-21l-2 -2 0 371 2 1c10,7 19,13 28,19l0 -368zm-30 -23c-9,-7 -18,-14 -27,-21l-3 -2 0 374 2 1c10,7 19,13 28,19l0 -371zm-30 -23c-9,-7 -18,-15 -27,-22l-2 -1 -1 -1 0 377 2 1c10,7 19,13 28,20l0 -374zm-30 -24l-27 -24 -3 -2 0 382 2 1c10,7 19,14 28,20l0 -377zm-30 -26l-27 -25 -3 -2 0 387 2 2c10,6 19,13 28,20l0 -382zm-30 -27l-27 -24 -3 -2 0 391 2 1c10,7 19,14 28,21l0 -387zm-30 -26l-27 -24 -3 -2 0 394 2 2c10,7 19,14 28,21l0 -391zm-30 -26l-27 -25 -3 -2 0 398 2 1c10,8 19,15 28,22l0 -394zm-30 -27l-27 -24 -3 -2 0 399 2 2 12 10 16 13 0 -398zm-30 -26l-27 -25 -3 -2 0 401 2 1 28 24 0 -399zm-30 -27l-1 0c-8,-8 -17,-17 -26,-26l-3 -2 0 403 2 2 28 24 0 -401zm-30 -28c-9,-9 -18,-18 -27,-28l-3 -2 0 407 2 2 28 24 0 -403zm-30 -30c-9,-10 -18,-19 -27,-29l-3 -2 0 413 2 2 28 23 0 -407zm-30 -31c-9,-10 -18,-20 -27,-30l-3 -2 0 419 2 2 28 24 0 -413zm-30 -32c-9,-10 -18,-20 -27,-30l-3 -3 0 427 2 2 28 23 0 -419zm-30 -33c-9,-10 -18,-21 -27,-31l-3 -3 0 435 2 2 28 24 0 -427zm-30 -34c-9,-10 -18,-21 -27,-31l-3 -3 0 443 3 2c4,4 9,8 13,12l14 12 0 -435zm-30 -34c-9,-11 -18,-21 -27,-32l-3 -3 0 449 3 2c9,10 18,19 27,27l0 -443zm-30 -35c-9,-11 -18,-22 -27,-33l-3 -3 0 455 3 3c9,9 18,18 27,27l0 -449zm-30 -36c-5,-6 -9,-11 -14,-17 -4,-6 -9,-11 -13,-17l-3 -3 0 461 3 3c9,9 18,19 27,28l0 -455zm-30 -37c-9,-12 -18,-24 -27,-35l-3 -4 0 468 3 3c9,10 18,20 27,29l0 -461zm-30 -39c-9,-12 -18,-24 -27,-36l-3 -4 0 475 3 3c9,10 18,20 27,30l0 -468zm-30 -40c-9,-12 -18,-24 -27,-37l-3 -4 0 483 3 2c9,11 18,21 27,31l0 -475zm-30 -41c-9,-13 -18,-26 -27,-38l-3 -4 0 491 3 2c9,11 18,21 27,32l0 -483zm-30 -42c-9,-14 -18,-27 -27,-40l-3 -5 0 501 3 2c9,11 18,22 27,33l0 -491zm-30 -45c-9,-13 -18,-27 -27,-41l-3 -5 0 511 3 3c9,11 18,22 27,33l0 -501zm-30 -46c-9,-14 -18,-28 -27,-43l-3 -4 0 521 3 3c9,11 18,23 27,34l0 -511zm-30 -47c-9,-15 -18,-30 -27,-45l-3 -5 0 534 3 3c9,11 18,23 27,34l0 -521zm-30 -50c-9,-16 -18,-31 -27,-47l-3 -5 0 547 3 3c9,12 18,24 27,36l0 -534zm-30 -52c-9,-16 -18,-33 -27,-49l-3 -6 0 562 1 1 2 2c8,12 18,24 27,37l0 -547zm-30 -55c-9,-17 -18,-34 -27,-51l-3 -6 0 577 3 3c9,13 18,26 27,39l0 -562zm-30 -57c-9,-18 -18,-36 -27,-54l-3 -6 0 594 3 3c9,14 18,27 27,40l0 -577zm-30 -60c-9,-19 -18,-38 -26,-57l-4 -7 0 613 3 4c9,14 18,27 27,41l0 -594zm-30 -64c-9,-20 -18,-40 -26,-60l-4 -8 0 636 3 4c9,14 18,27 27,41l0 -613zm-30 -68c-9,-21 -18,-43 -26,-64l-4 -8 0 660 3 5c9,14 18,28 27,43l0 -636zm-30 -72c-9,-23 -18,-46 -26,-69l-4 -9 0 690 3 4c9,15 18,30 27,44l0 -660zm-30 -78c-9,-25 -18,-50 -26,-75l-4 -10 0 724 3 5c9,15 18,30 27,46l0 -690zm-30 -85c-9,-28 -18,-55 -26,-83l-4 -11 0 766 3 5c9,16 18,31 27,47l0 -724zm-30 -94c-9,-30 -18,-61 -26,-92l-4 -13 0 816 3 6c9,16 18,32 27,49l0 -766zm-30 -105c-9,-36 -18,-71 -26,-107l-4 -16 0 882 3 6c9,17 18,34 27,51l0 -816zm-30 -123c-9,-43 -18,-87 -26,-130l-4 -22 0 975 3 6c9,18 18,35 27,53l0 -882zm-30 -152c-10,-60 -19,-120 -26,-181 -1,-12 -2,-25 -4,-37l0 1130 3 6c9,19 18,38 27,57l0 -975zm-30 -218c-22,-216 -22,-434 0,-652l0 -1128c-8,18 -16,35 -24,53l-6 13 0 2778 3 7c9,19 18,39 27,59l0 -1130zm-30 -1714c-8,19 -16,37 -24,56l-6 13 0 2638 4 8c8,21 17,42 26,63l0 -2778zm-30 69c-8,20 -16,41 -24,61l-6 13 0 2489 4 8c8,23 17,45 26,67l0 -2638zm-30 74c-8,22 -16,44 -24,65l-6 15 0 2327 4 10c8,24 17,48 26,72l0 -2489zm-30 80c-8,23 -16,47 -24,70l-6 16 0 2153 4 10c8,26 17,52 26,78l0 -2327zm-30 86c-8,25 -16,51 -24,77l-6 17 0 1960 4 12c8,29 17,58 26,87l0 -2153zm-30 94c-8,29 -17,58 -25,87l-5 18 0 1744 4 14c8,33 17,65 26,97l0 -1960zm-30 105c-8,33 -17,67 -25,100l-5 22 0 1493 4 17c8,38 17,75 26,112l0 -1744zm-30 122c-9,40 -17,80 -25,120 -1,9 -3,18 -5,27l0 1186 4 23c8,46 17,92 26,137l0 -1493zm-30 147c-9,54 -18,108 -25,163 -2,13 -3,26 -5,39l0 761c2,12 3,24 4,36 8,64 16,126 26,187l0 -1186zm-30 202c-20,177 -26,358 -17,541 4,75 10,148 17,220l0 -761zm300 83c2,-14 3,-28 5,-42 7,-59 15,-118 25,-176l0 -973c-8,17 -16,34 -24,51l-6 12 0 1128zm30 -218c2,-9 4,-18 5,-27 8,-42 16,-84 25,-125l0 -880c-8,16 -16,32 -24,48l-6 11 0 973zm30 -152l5 -22c8,-34 16,-68 25,-102l0 -813c-8,15 -16,30 -24,46l-6 11 0 880zm30 -124l5 -18c8,-30 17,-59 25,-88l0 -762c-8,14 -16,29 -24,44l-6 11 0 813zm30 -106l6 -16c7,-26 16,-52 24,-78l0 -721c-8,14 -16,28 -24,42l-6 11 0 762zm30 -94l6 -15c8,-24 16,-47 24,-70l0 -687c-8,14 -16,27 -24,41l-6 10 0 721zm30 -85l6 -15c8,-21 16,-43 24,-64l0 -657c-8,13 -16,26 -24,40l-6 9 0 687zm30 -79l6 -13c8,-20 16,-40 24,-60l0 -631c-8,12 -16,25 -24,38l-6 9 0 657zm30 -73l6 -13c8,-18 16,-37 24,-56l0 -608c-8,12 -16,24 -24,37l-6 9 0 631zm30 -69l6 -12c7,-15 14,-30 21,-45l3 -7 0 -589c-8,12 -16,24 -24,36l-6 9 0 608zm30 -64l6 -11c8,-17 16,-33 24,-49l0 -572c-8,11 -16,23 -24,34l-6 9 0 589zm30 -60l6 -11c8,-16 16,-31 24,-46l0 -557c-8,11 -16,22 -24,33l-6 9 0 572zm30 -57l6 -10c8,-15 16,-30 24,-44l0 -544c-8,11 -16,22 -24,33l-6 8 0 557zm30 -54l6 -10c8,-14 16,-27 24,-41l0 -533c-8,11 -16,21 -23,32l-7 8 0 544zm30 -51l6 -10c8,-13 16,-26 24,-39l0 -523c-8,11 -16,21 -23,31l-1 1 -6 7 0 533zm30 -49l6 -9c8,-13 16,-26 24,-38l0 -513c-8,10 -16,20 -23,29l-7 8 0 523zm30 -47l6 -9c8,-13 16,-25 24,-37l0 -503c-7,9 -15,19 -23,28l-7 8 0 513zm30 -46l6 -9c8,-12 16,-24 24,-35l0 -490 -15 16c-3,2 -6,5 -8,9l-7 6 0 503zm30 -44l6 -9c8,-12 16,-23 24,-35l0 -476 -23 24 -7 6 0 490zm30 -44l6 -8c6,-8 12,-16 17,-24l7 -10 0 -465 -23 24 -7 7 0 476zm30 -42l6 -8c9,-12 16,-22 24,-33l0 -454 -23 24 -7 6 0 465zm30 -41l6 -7c8,-11 16,-21 24,-31l0 -447 -23 24 -7 7 0 454zm30 -38l6 -8 11 -14 13 -14 0 -441 -23 24 -7 6 0 447zm30 -36l6 -7 24 -28 0 -436 -23 23 -7 7 0 441zm30 -35l6 -7 24 -27 0 -433 -23 24 -7 7 0 436zm30 -34l6 -7 24 -28 0 -428 -23 24 -7 6 0 433zm30 -35l7 -7 23 -27 0 -425 -23 24 -7 7 0 428zm30 -34l7 -7 23 -27 0 -421 -23 24 -7 6 0 425zm30 -34l7 -8 16 -18 7 -7 0 -414c-7,6 -14,12 -21,18l-2 1 -7 7 0 421zm30 -33l7 -5c9,-8 16,-15 23,-22l0 -413c-7,7 -15,13 -23,20l-7 6 0 414zm30 -27l7 -6c8,-8 15,-15 23,-24l0 -410c-8,7 -15,14 -23,21l-7 6 0 413zm30 -30l7 -7c7,-7 14,-16 23,-26l0 -402c-8,6 -15,13 -23,20l-7 5 0 410zm30 -33l4 -4 3 -3c6,-7 14,-15 23,-24l0 -395c-7,6 -15,12 -23,19l-4 3 -3 2 0 402zm30 -31l7 -6c7,-6 15,-14 23,-21l0 -391c-7,6 -15,12 -23,18l-7 5 0 395zm30 -27l7 -6c7,-6 15,-13 23,-20l0 -388c-7,6 -15,12 -23,18l-7 5 0 391zm30 -26l7 -5c8,-7 15,-14 23,-20l0 -386c-7,6 -15,12 -23,18l-7 5 0 388zm30 -25l7 -6 23 -19 0 -382c-7,5 -15,11 -23,17l-7 4 0 386zm30 -25l7 -5 23 -20 0 -379c-7,6 -15,11 -23,17l-7 5 0 382zm30 -25l7 -5 23 -19 0 -376c-7,6 -15,11 -23,16l-7 5 0 379zm30 -24l3 -2 4 -3c8,-7 15,-13 23,-19l0 -372c-7,5 -15,10 -23,16l-7 4 0 376zm30 -24l7 -6c8,-6 16,-12 23,-18l0 -368c-7,5 -15,10 -23,15l-7 5 0 372zm30 -24l7 -5c8,-6 16,-12 23,-18l0 -365c-7,5 -15,10 -23,15l-7 5 0 368zm30 -23l7 -5c8,-6 16,-11 23,-17l0 -362c-7,5 -15,10 -23,15l-7 4 0 365zm30 -22l7 -5c8,-5 16,-11 23,-17l0 -359c-7,5 -15,10 -23,15l-7 4 0 362zm30 -22l7 -4c8,-6 16,-11 23,-17l0 -356c-7,5 -15,9 -23,14l-7 4 0 359zm30 -21l7 -4c8,-6 16,-11 23,-16l0 -354c-7,5 -15,9 -23,14l-7 4 0 356zm30 -20l7 -5c8,-5 16,-10 23,-15l0 -351c-7,4 -15,8 -23,13l-7 4 0 354zm30 -20l7 -4c8,-5 16,-10 23,-15l0 -350c-7,5 -15,9 -23,14l-7 4 0 351zm30 -19l7 -5c8,-5 16,-9 23,-14l0 -347c-7,4 -15,8 -23,12l-7 4 0 350zm30 -19l7 -4c8,-5 16,-10 23,-15l0 -345c-7,4 -15,9 -23,13l-7 4 0 347zm30 -19l7 -4c8,-4 16,-9 23,-14l0 -343c-7,4 -15,8 -23,13l-7 3 0 345zm30 -18l7 -3c8,-5 16,-10 23,-14l0 -341 -23 12 -7 3 0 343zm30 -17l7 -4c8,-4 16,-9 23,-13l0 -340c-7,4 -15,8 -23,12l-7 4 0 341zm30 -17l7 -4c8,-4 16,-8 23,-13l0 -337c-7,3 -15,7 -23,11l-7 3 0 340zm30 -17l7 -3c8,-5 16,-9 23,-13l0 -336 -23 11 -7 4 0 337zm30 -16l7 -4c8,-4 16,-8 23,-12l0 -334c-7,3 -15,7 -23,11l-7 3 0 336zm30 -16l7 -3c8,-4 16,-8 23,-12l0 -333 -23 10 -7 4 0 334zm30 -15l7 -4c8,-4 16,-8 23,-11l0 -332c-7,4 -15,7 -23,11l-7 3 0 333zm30 -15l7 -4c8,-4 16,-7 23,-11l0 -330c-7,4 -15,7 -23,10l-7 3 0 332zm30 -15l7 -4c8,-3 16,-7 23,-11l0 -328c-7,4 -15,7 -23,10l-7 3 0 330zm30 -15l7 -3 23 -11 0 -326c-7,3 -15,6 -23,9l-7 3 0 328zm30 -14l7 -3c8,-4 16,-7 23,-11l0 -324 -23 9 -7 3 0 326zm30 -14l7 -3 23 -10 0 -323c-7,3 -15,6 -23,9l-7 3 0 324zm30 -13l7 -3 23 -10 0 -322c-7,3 -15,6 -23,9l-7 3 0 323zm30 -13l1 -1 6 -2c8,-4 16,-7 23,-10l0 -320c-7,3 -15,6 -22,9l-8 2 0 322zm30 -13l7 -3c8,-3 16,-7 23,-10l0 -318c-7,3 -15,6 -22,8l-8 3 0 320zm30 -13l7 -3c8,-3 16,-6 23,-9l0 -317c-7,3 -15,6 -22,9l-8 2 0 318zm30 -12l7 -3c8,-3 16,-6 23,-9l0 -315c-7,3 -15,5 -22,8l-8 2 0 317zm30 -12l7 -2c8,-3 16,-6 23,-9l0 -314c-7,3 -15,5 -22,8l-8 2 0 315zm30 -11l7 -2c8,-3 16,-6 23,-9l0 -313 -22 8 -8 2 0 314zm30 -11l7 -2c8,-3 16,-6 23,-8l0 -312c-7,2 -15,5 -22,7l-8 2 0 313zm30 -10l7 -3c8,-2 16,-5 23,-7l0 -311c-7,2 -15,4 -22,7l-8 2 0 312zm30 -10l7 -3c8,-2 16,-5 23,-7l0 -310c-7,2 -15,4 -22,7l-8 2 0 311zm30 -10l7 -2c8,-3 16,-5 23,-8l0 -309 -22 7 -8 2 0 310zm30 -10l7 -2c8,-2 16,-4 23,-7l0 -308c-7,2 -15,4 -22,6l-8 2 0 309zm30 -9l7 -2 23 -6 0 -308 -22 6 -8 2 0 308zm30 -8l7 -2c8,-3 16,-5 23,-7l0 -306c-7,1 -15,3 -22,5l-8 2 0 308zm30 -9l7 -2c8,-2 16,-4 23,-6l0 -306 -22 6 -8 2 0 306zm30 -8l7 -2c8,-2 16,-4 23,-6l0 -305 -22 5 -8 2 0 306zm30 -8l7 -1c8,-2 16,-4 23,-6l0 -305c-7,2 -15,4 -22,5l-8 2 0 305zm30 -7l7 -2c8,-1 16,-3 23,-5l0 -304c-7,1 -15,3 -22,5l-8 1 0 305zm30 -7l7 -2c8,-1 16,-3 23,-5l0 -304c-7,2 -15,3 -22,5l-8 2 0 304zm30 -7l7 -1c8,-2 16,-4 23,-5l0 -304c-7,2 -15,3 -22,5l-8 1 0 304zm30 -6l7 -2c8,-1 16,-3 23,-4l0 -303 -22 4 -8 1 0 304zm30 -6l7 -2 23 -4 0 -303c-7,1 -15,3 -22,4l-8 2 0 303zm30 -6l7 -1c8,-2 16,-3 23,-5l0 -302c-7,1 -15,2 -22,4l-8 1 0 303zm30 -6l7 -1 23 -4 0 -302 -22 4 -8 1 0 302zm30 -5l7 -1c8,-1 16,-3 23,-4l0 -302c-7,1 -15,3 -22,4l-8 1 0 302zm30 -5l7 -1c8,-1 16,-2 23,-3l0 -302c-7,1 -15,2 -22,3l-8 1 0 302zm30 -4l7 -1c8,-2 16,-3 23,-4l0 -301 -22 3 -8 1 0 302zm30 -5l7 -1c8,-1 16,-2 23,-3l0 -301c-7,1 -15,2 -22,3l-8 1 0 301zm30 -4l7 -1 23 -2 0 -302c-7,1 -15,2 -22,3l-8 1 0 301zm30 -3l7 -1c8,-1 16,-2 23,-3l0 -301c-7,1 -15,2 -22,3l-8 0 0 302zm30 -4l7 -1c8,0 16,-1 23,-2l0 -301c-7,1 -15,2 -22,2l-8 1 0 301zm30 -3l7 -1 23 -2 0 -301c-7,1 -15,2 -22,2l-8 1 0 301zm30 -3l7 -1 23 -1 0 -301c-7,0 -15,1 -22,2l-8 0 0 301zm30 -2l7 -1c8,-1 16,-1 23,-2l0 -301c-7,1 -15,2 -22,2l-8 1 0 301zm30 -3l7 0c8,-1 16,-1 23,-2l0 -301 -22 2 -8 0 0 301zm30 -2l7 0c8,-1 16,-1 23,-2l0 -300c-7,0 -15,0 -22,1l-8 0 0 301zm30 -2l7 0c8,0 16,-1 23,-1l0 -301c-7,0 -15,1 -22,1l-8 1 0 300zm30 -1l7 0c8,-1 16,-1 23,-1l0 -301c-7,0 -15,0 -22,1l-8 0 0 301zm30 -1l7 0c8,-1 16,-1 23,-1l0 -301c-7,0 -15,0 -22,1l-8 0 0 301zm30 -1l7 0 23 -1 0 -301c-7,0 -15,0 -22,1l-8 0 0 301zm30 -1l7 0c8,0 16,0 23,0l0 -301c-7,0 -15,0 -22,0l-8 0 0 301zm30 0l7 0 23 0 0 -302c-7,0 -15,1 -22,1l-8 0 0 301zm30 0l7 0c8,0 16,0 23,0l0 -302c-7,0 -15,0 -22,0l-8 0 0 302zm30 0l7 0c8,0 16,0 23,0l0 -301c-7,0 -15,0 -22,0l-8 -1 0 302zm30 0l7 0c8,1 16,1 23,1l0 -302c-7,0 -15,0 -22,0l-8 0 0 301zm30 1l7 0c8,0 16,1 23,1l0 -302c-7,0 -15,0 -22,0l-8 -1 0 302zm30 1l7 0 23 1 0 -302c-7,0 -15,0 -22,-1l-8 0 0 302zm30 1l7 1c8,0 16,0 23,1l0 -302c-7,-1 -15,-1 -22,-1l-8 -1 0 302zm30 2l7 0 23 2 0 -303c-7,0 -15,-1 -22,-1l-8 0 0 302zm30 2l7 0c8,1 16,1 23,2l0 -303c-7,-1 -15,-1 -22,-1l-8 -1 0 303zm30 2l7 0c8,1 16,1 23,2l0 -303c-7,0 -15,-1 -22,-1l-8 -1 0 303zm30 2l7 1c8,0 16,1 23,2l0 -304c-7,0 -15,-1 -22,-1l-8 -1 0 303zm30 3l7 0c8,1 16,2 23,3l0 -304c-7,-1 -15,-1 -22,-2l-8 -1 0 304zm30 3l7 0 23 3 0 -304c-7,-1 -15,-1 -22,-2l-8 -1 0 304zm30 3l7 1c8,0 16,1 23,2l0 -304c-7,-1 -15,-1 -22,-2l-8 -1 0 304zm30 3l7 1 23 3 0 -304c-7,-1 -15,-2 -22,-3l-8 -1 0 304zm30 4l7 1c8,1 16,2 23,3l0 -305c-7,-1 -15,-2 -22,-3l-8 0 0 304zm30 4l7 1c8,1 16,2 23,3l0 -305c-7,-1 -15,-2 -22,-3l-8 -1 0 305zm30 4l7 1c8,2 16,3 23,4l0 -306c-7,-1 -15,-2 -22,-3l-8 -1 0 305zm30 5l7 1c8,1 16,3 23,4l0 -306c-7,-1 -15,-2 -22,-4l-8 -1 0 306zm30 5l7 1c8,1 16,3 23,4l0 -306c-7,-2 -15,-3 -22,-4l-8 -1 0 306zm30 5l7 1 23 5 0 -307c-7,-2 -15,-3 -22,-4l-8 -1 0 306zm30 6l7 1c8,1 16,3 23,4l0 -307c-7,-1 -15,-3 -22,-4l-8 -1 0 307zm30 5l7 2c8,1 16,3 23,4l0 -308c-7,-1 -15,-2 -22,-4l-8 -1 0 307zm30 6l7 2c8,1 16,3 23,5l0 -309c-7,-1 -15,-3 -22,-4l-8 -2 0 308zm30 7l7 1c8,2 16,4 23,5l0 -309c-7,-1 -15,-3 -22,-4l-8 -2 0 309zm30 6l7 2c8,2 16,4 23,5l0 -309c-7,-2 -15,-3 -22,-5l-8 -2 0 309zm30 7l7 2c8,2 16,4 23,6l0 -311c-7,-1 -15,-3 -22,-5l-8 -1 0 309zm30 8l7 1c8,2 16,4 23,6l0 -311c-7,-1 -15,-3 -22,-5l-8 -2 0 311zm30 7l7 2c8,2 16,4 23,6l0 -311c-7,-2 -15,-4 -22,-6l-8 -2 0 311zm30 8l7 2c8,2 16,4 23,6l0 -312c-7,-2 -15,-4 -22,-6l-8 -1 0 311zm30 8l7 2c8,2 16,5 23,7l0 -313c-7,-2 -15,-4 -22,-6l-8 -2 0 312zm30 9l7 2c8,2 16,4 23,7l0 -314c-7,-2 -15,-4 -22,-6l-8 -2 0 313zm30 9l7 2c8,2 16,4 23,7l0 -315c-7,-2 -15,-4 -22,-6l-8 -2 0 314zm30 9l7 2c8,2 16,5 23,7l0 -315c-7,-2 -15,-5 -22,-7l-8 -2 0 315zm30 9l7 3c8,2 16,5 23,7l0 -316c-7,-3 -15,-5 -22,-7l-8 -2 0 315zm30 10l7 3c8,2 16,5 23,7l0 -317c-7,-3 -15,-5 -22,-7l-8 -2 0 316zm30 10l7 3c8,2 16,5 23,8l0 -319c-7,-2 -15,-4 -22,-7l-8 -2 0 317zm30 11l7 2c8,3 16,6 23,9l0 -320c-7,-2 -15,-5 -22,-7l-8 -3 0 319zm30 11l7 2c8,3 16,6 23,9l0 -321c-7,-2 -15,-5 -22,-7l-8 -3 0 320zm30 11l7 3c8,3 16,6 23,9l0 -322c-7,-3 -15,-6 -22,-8l-8 -3 0 321zm30 12l7 2c8,3 16,6 23,10l0 -324c-7,-2 -15,-5 -22,-8l-8 -2 0 322zm30 12l7 2c8,4 16,7 23,10l0 -325c-7,-2 -15,-5 -22,-8l-8 -3 0 324zm30 12l7 3c8,3 16,6 23,10l0 -326c-7,-3 -15,-6 -22,-9l-8 -3 0 325zm30 13l7 3c8,3 16,6 23,10l0 -328c-7,-3 -15,-6 -22,-9l-8 -2 0 326zm30 13l7 3c8,3 16,7 23,10l0 -329c-7,-3 -15,-6 -23,-9l-7 -3 0 328zm30 13l7 3c8,4 16,8 23,11l0 -330 -6 -3c-6,-2 -11,-5 -17,-7l-7 -3 0 329zm30 14l7 3c8,4 16,8 23,12l0 -333 -23 -10 -7 -2 0 330zm30 15l7 3 2 1c7,3 14,7 21,10l0 -334 -23 -10 -7 -3 0 333zm30 14l7 4c8,4 16,8 23,12l0 -337c-7,-3 -15,-7 -23,-10l-7 -3 0 334zm30 16l7 3c8,4 16,8 23,12l0 -338c-7,-4 -15,-7 -23,-11l-7 -3 0 337zm30 15l7 4c8,4 16,8 23,13l0 -342 -23 -10 -7 -3 0 338zm30 17l7 3c8,5 16,9 23,13l0 -344c-7,-3 -15,-7 -23,-10l-7 -4 0 342zm30 16l7 4c8,4 16,9 23,13l0 -346c-7,-4 -15,-8 -23,-11l-7 -4 0 344zm30 17l7 4c8,5 16,9 23,14l0 -349c-7,-4 -15,-8 -23,-12l-7 -3 0 346zm30 18l7 4c8,4 16,9 23,13l0 -351c-7,-4 -15,-8 -23,-12l-7 -3 0 349zm30 17l7 4c8,5 16,10 23,15l0 -355c-7,-4 -15,-8 -23,-12l-7 -3 0 351zm30 19l7 4c8,4 16,9 23,14l0 -357c-7,-4 -15,-8 -23,-12l-7 -4 0 355zm30 18l7 4c8,5 16,10 23,15l0 -359c-7,-4 -15,-9 -23,-13l-7 -4 0 357zm30 19l7 4c8,5 16,10 23,16l0 -362c-7,-5 -15,-9 -23,-13l-7 -4 0 359zm30 20l7 4c8,5 16,10 23,15l0 -364c-7,-4 -15,-9 -23,-13l-7 -4 0 362zm30 19l7 5c8,5 16,10 23,16l0 -367c-7,-4 -15,-9 -23,-14l-7 -4 0 364zm30 21l7 4c8,5 16,11 23,16l0 -368c-7,-5 -15,-10 -23,-14l-7 -5 0 367zm30 20l7 5c8,5 16,11 23,16l0 -370c-7,-5 -15,-10 -23,-15l-7 -4 0 368zm30 21l7 5c8,6 16,11 23,17l0 -372c-7,-5 -15,-10 -23,-15l-7 -5 0 370zm30 22l7 5c8,5 16,11 23,17l0 -374c-7,-5 -15,-10 -23,-16l-7 -4 0 372zm30 22l7 5c8,5 16,11 23,17l0 -375c-7,-5 -15,-11 -23,-16l-7 -5 0 374zm30 22l7 5c8,6 16,12 23,18l0 -376c-7,-6 -15,-11 -23,-17l-7 -5 0 375zm30 23l7 5c8,6 16,13 23,19l0 -378c-7,-6 -15,-12 -23,-17l-7 -5 0 376zm30 24l7 5c8,6 16,13 23,19l0 -380c-7,-6 -15,-12 -23,-17l-7 -5 0 378zm30 24l7 5c8,7 16,13 23,20l0 -382c-7,-6 -15,-12 -23,-18l-7 -5 0 380zm30 25l7 5c8,7 16,13 23,20l0 -384c-7,-6 -15,-12 -23,-18l-7 -5 0 382zm30 25l7 6c8,7 16,13 23,20l0 -386 -23 -18 -7 -6 0 384zm30 26l7 6c8,7 16,14 23,21l0 -389 -23 -19 -7 -5 0 386zm30 27l7 6c8,7 16,15 23,22l0 -393 -23 -19 -7 -5 0 389zm30 28l7 6c8,8 16,15 23,23l0 -397 -23 -19 -7 -6 0 393zm30 29l7 6c8,8 16,16 23,24l0 -403 -23 -19 -7 -5 0 397zm30 30l7 6c8,8 16,17 23,25l0 -409 -23 -19 -7 -6 0 403zm30 31l7 6c7,9 15,17 22,25l1 1 0 -416 -23 -20 -7 -5 0 409zm30 32l7 7c8,9 15,18 23,27l0 -426 -2 -2 -21 -17 -7 -5 0 416zm30 34l7 7c8,9 15,18 23,27l0 -433c-8,-8 -16,-15 -23,-21l-7 -6 0 426zm30 34l7 7c8,10 15,19 23,28l0 -441c-8,-7 -15,-15 -23,-22l-7 -5 0 433zm30 35l6 7c9,10 16,19 24,28l0 -447c-8,-8 -15,-15 -23,-23l-7 -6 0 441zm30 35l6 8c8,9 16,19 24,29l0 -454c-8,-8 -15,-16 -23,-23l-7 -7 0 447zm30 37l6 7c8,10 16,20 24,29l0 -459c-8,-8 -15,-16 -23,-24l-7 -7 0 454zm30 36l6 8c8,10 16,20 24,30l0 -465c-8,-9 -15,-17 -23,-25l-7 -7 0 459zm30 38l6 8c8,10 16,21 24,31l0 -472c-7,-8 -15,-17 -23,-25l-7 -7 0 465zm30 39l6 8c8,11 16,21 24,32l0 -479c-7,-9 -15,-17 -23,-26l-7 -7 0 472zm30 40l6 8c8,11 16,22 24,33l0 -486c-7,-9 -15,-18 -23,-27l-7 -7 0 479zm30 41l6 9c8,11 16,23 24,34l0 -495c-7,-9 -15,-18 -23,-27l-7 -7 0 486zm30 43l6 9c8,11 16,23 24,35l0 -504c-7,-9 -15,-18 -23,-28l-7 -7 0 495zm30 44l6 9c8,12 16,25 24,37l0 -514c-7,-9 -15,-19 -23,-28l-7 -8 0 504zm30 46l6 9c8,13 16,26 24,39l0 -526c-7,-9 -15,-19 -23,-29l-7 -7 0 514zm30 48l6 10c8,13 16,27 24,41l0 -539c-7,-10 -15,-20 -23,-30l-7 -8 0 526zm30 51l6 10c8,14 16,28 24,43l0 -553c-7,-10 -15,-20 -23,-31l-7 -8 0 539zm30 53l6 10c8,15 16,30 24,45l0 -566c-6,-9 -12,-18 -19,-27l-5 -6 -6 -9 0 553zm30 55l6 11c8,16 16,32 24,49l0 -584c-8,-11 -15,-22 -24,-34l-6 -8 0 566zm30 60l6 11c8,17 16,34 24,52l0 -603c-8,-12 -16,-24 -24,-35l-6 -9 0 584zm30 63l6 12c8,18 16,36 24,55l0 -625c-8,-13 -16,-24 -24,-36l-6 -9 0 603zm30 67l6 13c6,15 12,30 19,45l5 15 0 -652c-8,-13 -16,-25 -24,-37l-6 -9 0 625zm30 73l6 13c8,21 16,43 24,64l0 -682c-8,-13 -16,-25 -24,-38l-6 -9 0 652zm30 77l6 14c8,23 16,46 24,69l0 -716c-8,-13 -16,-26 -24,-39l-1 -2 -5 -8 0 682zm30 83l6 15c8,25 16,50 24,75l0 -755c-8,-14 -16,-27 -24,-41l-6 -10 0 716zm30 90l6 17c8,27 16,55 24,83l0 -802c-8,-14 -16,-29 -24,-43l-6 -10 0 755zm30 100l5 18c9,31 18,63 25,95l0 -860c-8,-15 -16,-30 -24,-45l-6 -10 0 802zm30 113l5 20c9,37 18,75 25,113l0 -934c-8,-16 -16,-32 -24,-48l-6 -11 0 860zm30 133c2,8 4,16 5,25 10,49 18,99 25,149l0 -1047c-8,-17 -16,-34 -24,-50l-6 -11 0 934zm30 174c2,12 4,23 5,34 16,119 24,241 25,367l0 -1384c-8,-17 -16,-35 -24,-53l-6 -11 0 1047zm30 401c0,15 0,30 0,44l0 1408 3 -7c10,-21 19,-42 27,-63l0 -2697c-8,-19 -16,-38 -24,-57l-6 -12 0 1384zm30 1382l4 -8c9,-22 18,-45 26,-67l0 -2550c-8,-20 -16,-40 -24,-60l-6 -12 0 2697zm30 -75l4 -9c9,-23 18,-47 26,-71l0 -2391c-8,-22 -16,-43 -24,-65l-6 -14 0 2550zm30 -80l4 -9c9,-26 18,-52 26,-78l0 -2220c-8,-23 -16,-46 -24,-70l-6 -14 0 2391zm30 -87l4 -10c9,-28 18,-56 26,-85l0 -2032c-8,-26 -16,-51 -24,-77l-6 -16 0 2220zm30 -95l4 -11c9,-31 18,-63 26,-94l0 -1823c-8,-29 -16,-58 -24,-87l-6 -17 0 2032zm30 -105l4 -14c9,-35 18,-71 26,-107l0 -1584c-7,-33 -16,-66 -25,-99l-5 -19 0 1823zm30 -121l4 -16c10,-42 18,-84 26,-127l0 -1299c-7,-40 -16,-80 -25,-120l-5 -22 0 1584zm30 -143l4 -20c10,-56 19,-112 26,-167l0 -927c-7,-53 -15,-106 -25,-159 -1,-9 -3,-18 -5,-26l0 1299zm30 -187c2,-11 3,-21 4,-31 15,-119 24,-239 26,-359l0 -144c-2,-119 -10,-238 -25,-356 -1,-12 -3,-25 -5,-37l0 927zm30 -390c1,-48 1,-96 0,-144l0 144zm-3603 75c-14,-57 -11,-108 3,-151l0 -349c-9,5 -17,9 -25,14l-5 3 0 823 4 2c9,5 17,10 26,14l0 -342c-1,-4 -2,-9 -3,-14zm-27 -483c-9,6 -17,12 -25,18l-5 3 0 783 4 3c9,5 17,11 26,16l0 -823zm-30 21c-9,7 -17,15 -25,22l-5 4 0 735 4 3c9,6 17,13 26,19l0 -783zm-30 26c-8,8 -17,17 -25,24l-5 5 0 678 4 4c8,8 17,16 26,24l0 -735zm-30 29c-8,7 -16,14 -25,21l-5 3 0 621 4 5c8,10 17,19 26,28l0 -678zm-30 24l-1 1 -24 -19 -5 -3 0 600 4 6c8,12 17,24 26,36l0 -621zm-30 -21l-25 -21 -5 -3 0 566c2,3 3,6 4,9 8,16 16,33 26,49l0 -600zm-30 -24l-25 -21 -5 -4 0 500c2,5 3,11 5,16 6,24 14,49 25,75l0 -566zm-30 -25l-25 -20 -5 -4 0 406 4 0 1 1c8,23 13,66 25,117l0 -500zm-30 -24l-25 -20 -5 -4 0 429 5 0 25 1 0 -406zm-30 -24l-25 -20 -5 -4 0 452 5 1 25 0 0 -429zm-30 -24l-25 -20 -5 -4 0 476 5 0 25 0 0 -452zm-30 -24l-25 -20 -5 -4 0 499 5 0 25 1 0 -476zm-30 -24l-25 -21 -5 -3 0 522 5 1 25 0 0 -499zm-30 -24l-25 -21 -5 -3 0 546 5 0 25 0 0 -522zm-30 -24l-25 -21 -5 -4 0 570 5 0 25 1 0 -546zm-30 -25l-25 -20 -5 -4 0 594 5 0 25 0 0 -570zm-30 -24l-25 -20 -5 -4 0 617 5 0 25 1 0 -594zm-30 -24l-25 -20 -5 -4 0 640 5 0 25 1 0 -617zm-30 -24l-25 -20 -5 -4 0 663 5 1 25 0 0 -640zm-30 -24l-25 -20 -5 -4 0 687 5 0 25 0 0 -663zm-30 -24l-25 -20 -5 -4 0 710 5 0 25 1 0 -687zm-30 -24l-25 -20 -5 -4 0 733 5 0 25 1 0 -710zm-30 -24l-25 -21 -5 -3 0 756 5 0 25 1 0 -733zm-30 -24l-25 -21 -5 -4 0 780 5 0 25 1 0 -756zm-30 -25l-25 -20 -5 -4 0 803 5 0 14 0 11 1 0 -780zm-30 -24l-25 -20 -5 -4 0 826 5 0c8,0 17,0 25,1l0 -803zm-30 -24l-25 -20 -5 -4 0 849 5 0c8,0 16,0 25,1l0 -826zm-30 -24l-25 -20 -5 -4 0 872 5 0c8,1 16,1 25,1l0 -849zm-30 -24l-25 -20 -5 -4 0 896 5 0c8,0 16,0 25,0l0 -872zm-30 -24l-25 -20 -5 -4 0 920 5 0c8,0 16,0 25,0l0 -896zm-30 -24l-25 -20 -5 -4 0 945 5 -1c8,0 16,0 25,0l0 -920zm-30 -24l-25 -20 -5 -5 0 970 5 0 25 0 0 -945zm-30 -25l-24 -20 -6 -4 0 995 5 0 25 -1 0 -970zm-30 -24l-24 -20 -6 -4 0 1018 5 0c7,1 16,1 25,1l0 -995zm-30 -24l-24 -20 -6 -4 0 1038c2,0 3,1 5,1 7,2 15,3 25,3l0 -1018zm-30 -24l-24 -20 -6 -4 0 1042c2,2 3,3 5,4 8,8 15,13 25,16l0 -1038zm-30 -24l-24 -20 -6 -4 0 1028 5 6c10,13 18,24 25,32l0 -1042zm-30 -24l-24 -20 -6 -4 0 1013 2 2 3 3c10,13 18,24 25,34l0 -1028zm-30 -24l-24 -20 -6 -4 0 999 5 5 25 33 0 -1013zm-30 -24l-7 -6 -17 -14 -6 -5 0 985 5 6 25 33 0 -999zm-30 -25l-24 -19 -6 -5 0 971 5 6 25 32 0 -985zm-30 -24l-24 -19 -6 -5 0 957 5 5 25 33 0 -971zm-30 -24l-24 -20 -6 -4 0 942 5 5 25 34 0 -957zm-30 -24l-24 -20 -6 -4 0 926 5 6c8,11 17,22 25,34l0 -942zm-30 -24l-24 -20 -6 -4 0 910 5 6c8,11 17,23 25,34l0 -926zm-30 -24l-24 -20 -6 -4 0 893 5 6c5,8 11,15 16,22l9 13 0 -910zm-30 -24l-24 -20 -6 -5 0 879 5 6c8,11 17,22 25,33l0 -893zm-30 -25l-24 -19 -6 -5 0 864 5 6c8,11 17,22 25,33l0 -879zm-30 -24l-24 -20 -6 -4 0 850 5 6 25 32 0 -864zm-30 -24l-24 -20 -6 -4 0 836 5 6 25 32 0 -850zm-30 -24l-24 -20 -6 -5 0 823 5 6c9,11 17,21 25,32l0 -836zm-30 -25l-24 -19 -6 -5 0 808 5 6c9,11 17,22 25,33l0 -823zm-30 -24l-24 -19 -6 -5 0 792 5 6 8 11c6,8 12,15 17,23l0 -808zm-30 -24l-24 -20 -6 -4 0 777 5 6 25 33 0 -792zm-30 -24l-24 -20 -6 -4 0 762 5 6 25 33 0 -777zm-30 -24l-24 -20 -6 -4 0 747 5 6 25 33 0 -762zm-30 -24l-22 -18 -2 -2 -6 -4 0 732 5 6 25 33 0 -747zm-30 -24l-24 -20 -6 -5 0 718 5 6 25 33 0 -732zm-30 -25l-24 -19 -6 -5 0 703 5 6 25 33 0 -718zm-30 -24l-24 -19 -6 -5 0 688 5 6 25 33 0 -703zm-30 -24l-24 -20 -6 -4 0 673 6 6 24 33 0 -688zm-30 -24l-24 -20 -6 -4 0 658 6 6 24 33 0 -673zm-30 -24l-24 -20 -6 -5 0 644 6 6 24 33 0 -658zm-30 -25l-24 -19 -6 -5 0 629 6 6 24 33 0 -644zm-30 -24l-24 -19 -6 -5 0 614 6 6 24 33 0 -629zm-30 -24l-24 -20 -6 -4 0 599 6 6 24 33 0 -614zm-30 -24l-24 -20 -6 -4 0 584 6 6 24 33 0 -599zm-30 -24l-24 -20 -6 -5 0 570 6 7c6,8 13,16 19,25l5 7 0 -584zm-30 -25l-24 -19 -6 -5 0 555 6 7c8,11 16,21 24,32l0 -570zm-30 -24l-24 -19 -2 -2 -4 -3 0 540 6 7c8,11 16,21 24,32l0 -555zm-30 -24c-6,-5 -14,-12 -24,-20l-6 -5 0 527 5 5 1 2c8,10 16,21 24,31l0 -540zm-30 -25c-7,-6 -15,-13 -24,-20l-6 -5 0 514 6 7c8,10 16,21 24,31l0 -527zm-30 -25c-8,-6 -16,-12 -24,-18l-6 -5 0 500 6 7c8,10 16,20 24,30l0 -514zm-30 -23c-8,-6 -16,-12 -24,-17 -2,-1 -4,-2 -6,-3l0 480 6 8c8,10 16,21 24,32l0 -500zm-30 -20c-6,-4 -11,-7 -15,-8 -1,27 -5,83 -9,146 -2,40 -4,83 -6,124l0 124c1,20 3,37 6,50 2,9 4,17 8,21 5,8 11,16 16,23l0 -480zm-30 262c-1,46 -1,89 0,124l0 -124zm2280 1654c2,-4 3,-8 5,-12 7,-17 15,-33 25,-47l0 -304c-9,4 -17,8 -25,12l-5 2 0 349zm0 507l4 2c9,4 17,8 26,12l0 -286c-10,-17 -19,-36 -25,-56 -2,-5 -3,-9 -5,-14l0 342zm30 -566c2,-2 3,-4 5,-6 8,-11 16,-20 25,-29l0 -280c-9,3 -17,6 -25,9l-5 2 0 304zm0 580l4 2 2 0c8,4 16,7 24,10l0 -259c-9,-10 -18,-21 -26,-33 -1,-2 -2,-4 -4,-6l0 286zm30 -615l5 -4c8,-7 16,-14 25,-21l0 -265c-3,1 -7,2 -11,3 -5,2 -9,3 -14,5l-5 2 0 280zm0 627l4 1c9,3 18,6 26,8l0 -241c-9,-7 -17,-14 -26,-23l-4 -4 0 259zm30 -652l5 -3c8,-5 17,-10 25,-15l0 -254c-8,1 -17,3 -25,6l-5 1 0 265zm0 661l4 2c9,2 18,4 26,6l0 -230c-9,-5 -17,-10 -26,-16l-4 -3 0 241zm30 -679l5 -2c8,-4 17,-8 25,-11l0 -247c-8,1 -17,3 -25,5l-5 1 0 254zm0 687l4 1c9,2 18,3 26,5l0 -222c-8,-4 -17,-7 -26,-12l-4 -2 0 230zm30 -700l5 -2c8,-3 17,-6 25,-8l0 -240c-8,1 -17,1 -25,3l-5 0 0 247zm0 706l4 0c9,2 18,3 26,4l0 -217c-8,-2 -17,-5 -26,-8l-4 -1 0 222zm30 -716l5 -1c8,-2 17,-4 25,-5l0 -236c-8,0 -17,1 -25,1l-5 1 0 240zm0 720l4 0c9,1 18,1 26,1l0 -213c-8,-1 -17,-2 -26,-4l-4 -1 0 217zm30 -726l5 -1c8,-1 17,-2 25,-2l0 -233c-8,0 -17,0 -25,0l-5 0 0 236zm0 727l4 1c9,0 18,0 26,-1l0 -211c-8,0 -17,-1 -26,-1l-4 -1 0 213zm30 -730l5 0c8,-1 17,-1 25,0l0 -231c-8,-1 -16,-1 -25,-2l-5 0 0 233zm0 730l4 0c9,0 18,-1 26,-2l0 -210c-8,1 -17,1 -26,1l-4 0 0 211zm30 -730l5 0c8,1 17,2 25,3l0 -231c-8,-1 -16,-2 -25,-3l-5 0 0 231zm0 728l4 0c9,-1 18,-2 26,-3l0 -212c-8,2 -17,3 -26,4l-4 1 0 210zm30 -725l5 1c8,2 17,4 25,6l0 -232c-8,-2 -16,-4 -25,-5l-5 -1 0 231zm0 722l4 -1c9,-2 18,-3 26,-5l0 -214c-8,3 -17,5 -26,7l-4 1 0 212zm30 -715l5 2c9,2 17,5 25,9l0 -236c-8,-2 -16,-4 -25,-6l-5 -1 0 232zm0 709l4 -1c9,-2 18,-5 26,-7l0 -217c-8,4 -17,7 -26,10l-4 1 0 214zm30 -698l5 2c9,4 17,9 25,14l0 -241c-8,-4 -16,-7 -25,-9l-5 -2 0 236zm0 690l4 -2c9,-2 18,-5 26,-8l0 -223c-8,5 -17,10 -26,14l-4 2 0 217zm30 -674l5 2c9,6 17,13 25,20l0 -250c-6,-3 -12,-6 -18,-9 -2,-1 -5,-2 -7,-3l-5 -1 0 241zm0 664l4 -2c9,-3 18,-7 26,-11l0 -232c-8,7 -17,14 -26,19l-4 3 0 223zm30 -642c2,1 3,2 5,4 9,8 17,17 25,28l0 -267c-8,-5 -16,-9 -25,-13l-5 -2 0 250zm0 629l4 -2c9,-4 18,-8 26,-13l0 -246c-8,9 -16,18 -26,26l-4 3 0 232zm30 -597c2,1 3,3 5,5 9,14 18,28 25,44l0 -299c-8,-5 -16,-10 -25,-15l-5 -2 0 267zm0 582l4 -2c9,-5 18,-10 26,-15l0 -274c-7,14 -16,27 -26,40 -1,1 -2,3 -4,5l0 246zm30 -533c2,4 3,7 5,11 6,16 11,33 15,52 14,66 6,123 -15,170 -2,3 -3,6 -5,9l0 274 4 -3c9,-6 18,-12 26,-18l0 -773c-8,-6 -16,-12 -25,-18l-5 -3 0 299zm30 495l4 -3c9,-7 18,-14 26,-22l0 -725c-8,-7 -16,-14 -25,-20l-5 -3 0 773zm30 -25l4 -3c9,-8 18,-17 26,-26l0 -668c-8,-8 -16,-16 -25,-24l-5 -4 0 725zm30 -29l4 -4c4,-4 7,-7 10,-11l16 13 0 -632c-8,-10 -16,-20 -25,-29l-5 -5 0 668zm30 -2l4 4 26 21 0 -616c-8,-12 -16,-24 -25,-36l-5 -5 0 632zm30 25l4 3 26 21 0 -584c-7,-17 -16,-33 -25,-48l-5 -8 0 616zm30 24l4 3 26 21 0 -515c-3,-17 -7,-35 -13,-52 -4,-11 -8,-21 -12,-31 -2,-4 -3,-7 -5,-10l0 584zm30 24l4 3 26 21 0 -438 -10 0c-8,-24 -11,-49 -15,-75 -2,-9 -3,-18 -5,-26l0 515zm30 24l4 3 26 21 0 -461 -25 -1 -5 0 0 438zm30 24l4 3 26 21 0 -485 -25 0 -5 0 0 461zm30 24l4 3 26 21 0 -509 -25 0 -5 0 0 485zm30 24l4 3 26 21 0 -533 -25 0 -5 0 0 509zm30 24l4 3 26 21 0 -556 -25 -1 -5 0 0 533zm30 24l4 3 26 21 0 -580 -25 0 -5 0 0 556zm30 24l4 3 26 21 0 -604 -25 0 -5 0 0 580zm30 24l4 3 26 21 0 -628 -25 0 -5 0 0 604zm30 24l4 3 26 22 0 -652 -25 -1 -5 0 0 628zm30 25l4 3 26 21 0 -676 -25 0 -5 0 0 652zm30 24l4 3 26 21 0 -700 -25 0 -5 0 0 676zm30 24l4 3 26 21 0 -724 -25 0 -5 0 0 700zm30 24l4 3 26 21 0 -748 -25 0 -5 0 0 724zm30 24l4 3 26 21 0 -771 -25 0 -5 -1 0 748zm30 24l4 3 26 21 0 -795 -25 0 -5 0 0 771zm30 24l4 3 26 21 0 -819 -25 0 -5 0 0 795zm30 24l4 3 26 21 0 -843 -25 0 -5 0 0 819zm30 24l4 3 26 21 0 -866 -25 -1 -5 0 0 843zm30 24l4 3 26 21 0 -890 -25 0 -5 0 0 866zm30 24l4 3 26 21 0 -914 -25 0 -5 0 0 890zm30 24l4 3 26 22 0 -939 -25 0 -5 0 0 914zm30 25l4 2 26 22 0 -962 -25 -1 -5 0 0 939zm30 24l4 2 26 22 0 -986 -25 0 -5 0 0 962zm30 24l4 2 26 22 0 -1010 -25 0 -5 0 0 986zm30 24l4 3 26 21 0 -1034 -25 0 -5 0 0 1010zm30 24l4 3 26 21 0 -1028 -22 -30 -3 0 -5 0 0 1034zm30 24l4 3 26 21 0 -1012 -25 -34 -5 -6 0 1028zm30 24l4 3 26 21 0 -996 -25 -34 -5 -6 0 1012zm30 24l4 3 26 21 0 -980 -25 -34 -5 -6 0 996zm30 24l4 3 26 21 0 -964 -25 -35 -5 -5 0 980zm30 24l4 3 26 21 0 -948 -26 -35 -4 -5 0 964zm30 24l4 3 26 22 0 -933 -26 -35 -4 -5 0 948zm30 25l4 2 26 22 0 -917 -26 -35 -4 -5 0 933zm30 24l4 2 26 22 0 -901 -26 -35 -4 -5 0 917zm30 24l4 2 26 22 0 -885 -26 -35 -4 -5 0 901zm30 24l4 2 26 22 0 -869 -26 -35 -4 -5 0 885zm30 24l4 2 26 22 0 -853 -26 -35 -4 -5 0 869zm30 24l3 2 27 22 0 -838 -26 -34 -4 -5 0 853zm30 24l3 3 27 21 0 -822 -26 -34 -4 -6 0 838zm30 24l3 3 27 21 0 -806 -26 -35 -4 -5 0 822zm30 24l3 3 27 21 0 -790 -26 -35 -4 -5 0 806zm30 24l3 3 27 21 0 -774 -26 -35 -4 -5 0 790zm30 24l3 3 27 21 0 -758 -26 -35 -4 -5 0 774zm30 24l3 3 27 22 0 -743 -26 -35 -4 -5 0 758zm30 25l3 2 27 22 0 -727 -26 -35 -4 -5 0 743zm30 24l3 2 27 22 0 -711 -26 -35 -4 -5 0 727zm30 24l3 2 27 22 0 -695 -26 -35 -4 -5 0 711zm30 24l3 2 27 22 0 -679 -26 -35 -4 -5 0 695zm30 24l3 2 27 22 0 -663 -26 -35 -4 -5 0 679zm30 24l3 2 27 22 0 -647 -26 -36 -4 -4 0 663zm30 24l3 2 27 22 0 -631 -26 -36 -4 -4 0 647zm30 24l3 2 27 22 0 -615 -26 -36 -4 -4 0 631zm30 24l3 3 27 21 0 -599 -26 -36 -4 -4 0 615zm30 24l3 3 9 7 18 15 0 -584 -26 -36 -4 -4 0 599zm30 25l3 2 27 23 0 -569 -26 -36 -4 -4 0 584zm30 25l3 2 27 22 0 -553 -26 -36 -4 -4 0 569zm30 24l3 3 27 22 0 -538 -26 -36 -4 -4 0 553zm30 25l3 2c9,8 18,15 27,22l0 -523 -14 -19 -12 -16 -4 -4 0 538zm30 24l3 2c9,8 19,15 27,22l0 -508 -27 -35 -3 -4 0 523zm30 24l3 2c10,8 19,15 27,22l0 -492c-7,-10 -16,-22 -27,-36l-3 -4 0 508zm30 24l3 2c10,8 19,14 27,20l0 -466c-4,-12 -12,-25 -27,-44l-3 -4 0 492zm30 22l3 2c9,7 16,11 21,13 -2,-116 -8,-243 -15,-359 -4,-65 0,-90 -6,-112 0,-4 -1,-7 -3,-10l0 466zm-4614 -4001l0 1c8,7 16,14 24,21l0 -60c-12,15 -20,27 -24,37l0 1zm24 22l6 5c8,7 16,13 24,19l0 -117c-8,9 -16,18 -23,26 -3,3 -5,5 -7,7l0 60zm30 24l6 5c8,6 16,13 24,19l0 -171c-8,8 -16,16 -23,24l-7 6 0 117zm30 24l6 4c8,6 16,12 24,18l0 -221c-8,7 -16,15 -23,22l-7 6 0 171zm30 22l6 5 24 17 0 -270c-8,7 -16,14 -23,21l-7 6 0 221zm30 22l6 5c9,6 17,12 24,18l0 -320c-8,7 -16,14 -23,21l-7 6 0 270zm30 23l6 4 10 7 14 12 0 -369c-8,7 -16,14 -23,21l-7 5 0 320zm30 23l6 4 24 19 0 -417c-8,6 -15,13 -23,20l-7 5 0 369zm30 23l6 5 24 18 0 -465c-7,6 -15,13 -23,20l-7 5 0 417zm30 23l6 5 24 19 0 -514 -23 20 -7 5 0 465zm30 24l6 4c8,7 16,13 24,19l0 -561 -23 19 -7 5 0 514zm30 23l6 5c8,6 16,12 24,18l0 -608c-7,6 -15,12 -23,19l-7 5 0 561zm30 23l6 4c8,6 16,12 24,18l0 -653c-7,5 -15,12 -23,18l-7 5 0 608zm30 22l5 3 1 -1c8,-7 16,-14 24,-20l0 -658 -8 6c-4,4 -10,8 -15,12l-7 5 0 653zm30 -18l6 -6c8,-7 16,-14 24,-22l0 -652c-8,6 -15,11 -23,17l-7 5 0 658zm30 -28l6 -5c8,-8 16,-15 24,-23l0 -645c-8,5 -15,11 -23,16l-7 5 0 652zm30 -28l6 -6c8,-7 16,-15 24,-22l0 -638c-8,5 -15,11 -23,16l-7 5 0 645zm30 -28l6 -6c8,-7 16,-14 24,-21l0 -631c-8,5 -15,10 -23,15l-7 5 0 638zm30 -27l6 -5c4,-3 8,-6 12,-9 4,-4 8,-7 12,-11l0 -626c-8,5 -15,10 -23,15l-7 5 0 631zm30 -25l6 -5c9,-7 16,-13 24,-20l0 -620c-8,5 -15,10 -23,15l-7 4 0 626zm30 -25l6 -6c8,-6 16,-13 24,-20l0 -613c-8,5 -15,10 -23,15l-7 4 0 620zm30 -26l6 -4 4 -4 20 -15 0 -608c-7,5 -15,9 -23,14l-7 4 0 613zm30 -23l6 -5c8,-6 16,-13 24,-19l0 -602c-7,5 -15,9 -23,14l-7 4 0 608zm30 -24l6 -5c8,-6 16,-12 24,-18l0 -596c-7,4 -15,9 -23,13l-7 4 0 602zm30 -23l6 -4 0 0c8,-6 16,-12 24,-18l0 -591c-7,4 -15,9 -23,13l-7 4 0 596zm30 -22l6 -4c8,-6 16,-12 24,-17l0 -587c-7,5 -15,9 -23,13l-7 4 0 591zm30 -21l6 -5c8,-5 16,-11 24,-16l0 -582c-7,5 -15,9 -23,13l-7 3 0 587zm30 -21l7 -4c7,-6 15,-11 23,-16l0 -577c-7,4 -15,8 -23,12l-7 3 0 582zm30 -20l7 -4c7,-5 15,-10 23,-16l0 -573c-7,4 -15,8 -23,12l-7 4 0 577zm30 -20l7 -3c7,-5 15,-10 23,-15l0 -569c-7,3 -15,7 -23,11l-7 3 0 573zm30 -18l7 -4c7,-5 15,-10 23,-15l0 -565c-7,4 -15,8 -23,11l-7 4 0 569zm30 -19l7 -3c7,-5 15,-10 23,-14l0 -562c-7,4 -15,7 -23,11l-7 3 0 565zm30 -17l7 -4c7,-4 15,-9 23,-13l0 -559c-7,4 -15,7 -23,11l-7 3 0 562zm30 -17l7 -4c7,-4 15,-8 23,-13l0 -555c-7,3 -15,7 -23,10l-7 3 0 559zm30 -17l7 -3c8,-4 15,-8 23,-13l0 -552c-7,3 -15,6 -23,10l-7 3 0 555zm30 -16l7 -3c8,-4 15,-8 23,-12l0 -550 -23 10 -7 3 0 552zm30 -15l7 -3c8,-4 15,-8 23,-12l0 -547c-7,3 -15,6 -23,9l-7 3 0 550zm30 -15l7 -3c8,-4 15,-8 23,-11l0 -545c-7,3 -15,6 -23,9l-7 3 0 547zm30 -14l7 -3c8,-4 15,-8 23,-11l0 -543c-7,3 -15,6 -23,9l-7 3 0 545zm30 -14l7 -3c8,-4 15,-7 23,-11l0 -540c-7,3 -15,5 -23,8l-7 3 0 543zm30 -14l7 -3c8,-3 15,-6 23,-10l0 -538c-7,3 -15,5 -23,8l-7 3 0 540zm30 -13l7 -2c8,-4 15,-7 23,-10l0 -537c-7,3 -15,6 -23,8l-7 3 0 538zm30 -12l7 -3c8,-3 15,-6 23,-10l0 -534c-7,3 -15,5 -23,8l-7 2 0 537zm30 -13l7 -2c8,-3 15,-6 23,-9l0 -533c-7,3 -15,5 -23,8l-7 2 0 534zm30 -11l7 -3c8,-3 15,-6 23,-9l0 -530c-7,2 -15,4 -23,7l-7 2 0 533zm30 -12l7 -2c8,-3 15,-6 23,-8l0 -529c-7,2 -15,4 -23,7l-7 2 0 530zm30 -10l7 -3c8,-2 15,-5 23,-8l0 -527c-7,2 -15,4 -23,7l-7 2 0 529zm30 -11l7 -2c8,-3 15,-5 23,-8l0 -526c-7,3 -15,5 -23,7l-7 2 0 527zm30 -10l7 -2c8,-3 15,-5 23,-8l0 -524c-7,2 -15,4 -23,7l-7 1 0 526zm30 -10l7 -2c8,-2 15,-5 23,-7l0 -522c-7,2 -15,4 -23,6l-7 1 0 524zm30 -9l7 -2c8,-3 15,-5 23,-7l0 -520c-7,1 -15,3 -23,5l-7 2 0 522zm30 -9l7 -2 8 -3 15 -4 0 -518c-7,1 -15,3 -23,5l-7 2 0 520zm30 -9l7 -2c8,-2 16,-4 23,-6l0 -517c-7,2 -15,3 -23,5l-7 2 0 518zm30 -8l7 -2c8,-2 16,-4 23,-6l0 -515c-7,2 -15,3 -23,5l-7 1 0 517zm30 -8l7 -1c8,-2 16,-4 23,-6l0 -513c-7,1 -15,2 -23,4l-7 1 0 515zm30 -7l7 -1c8,-2 16,-3 23,-5l0 -513c-7,2 -15,3 -23,4l-7 2 0 513zm30 -6l7 -1c8,-2 16,-3 23,-5l0 -511c-7,1 -15,2 -23,3l-7 1 0 513zm30 -6l7 -1c8,-1 16,-2 23,-4l0 -511c-7,1 -15,2 -23,4l-7 1 0 511zm30 -5l7 -1c8,-1 16,-2 23,-3l0 -511c-7,1 -15,2 -23,3l-7 1 0 511zm30 -4l7 -1c8,-1 16,-2 23,-3l0 -510c-7,1 -15,2 -23,3l-7 0 0 511zm30 -4l7 -1c8,-1 16,-2 23,-2l0 -510c-7,1 -15,1 -23,2l-7 1 0 510zm30 -3l7 -1c8,-1 15,-2 23,-2l0 -509c-7,0 -15,1 -23,1l-7 1 0 510zm30 -3l7 -1c8,0 15,-1 23,-2l0 -508c-7,0 -15,1 -23,1l-7 1 0 509zm30 -3l7 0c8,-1 15,-1 23,-2l0 -508c-7,1 -15,1 -23,1l-7 1 0 508zm30 -2l7 0c8,0 15,-1 23,-1l0 -508c-7,0 -15,1 -23,1l-7 0 0 508zm30 -1l7 0c8,-1 15,-1 23,-1l0 -507c-7,0 -15,0 -23,0l-7 0 0 508zm30 -1l7 -1 23 0 0 -506c-7,0 -15,0 -23,0l-7 0 0 507zm30 -1l7 -1 23 0 0 -504c-7,0 -15,-1 -23,-1l-7 0 0 506zm30 -1l7 0 23 -1 0 -502c-7,0 -15,0 -23,-1l-7 0 0 504zm30 -1l7 0 10 0 13 -159 0 -341c-7,0 -15,-1 -23,-1l-7 -1 0 502zm30 -159l7 -77 23 -261c-8,-1 -15,-1 -23,-2l-7 -1 0 341zm208 5606l2 1 0 -22 -2 21zm2 1l2 0c10,1 19,2 28,2l0 -340 -28 297 -2 19 0 22zm30 2l2 0c10,1 19,2 28,2l0 -502c-5,0 -10,1 -15,2l-13 136 -2 22 0 340zm30 2l2 0c10,1 19,1 28,2l0 -505c-9,0 -19,0 -27,1l-3 0 0 502zm30 2l2 0c10,0 19,0 28,0l0 -505c-9,0 -18,0 -27,0l-3 0 0 505zm30 0l2 0c10,0 19,1 28,0l0 -504c-9,0 -18,0 -27,-1l-3 0 0 505zm30 0l2 0c10,0 19,0 28,0l0 -503c-8,0 -18,0 -27,-1l-3 0 0 504zm30 0l2 0c10,0 19,0 28,-1l0 -503c-9,0 -18,1 -26,1l-1 0 -3 0 0 503zm30 -1l2 0c10,0 19,-1 28,-1l0 -504c-9,0 -19,1 -27,2l-3 0 0 503zm30 -1l2 0c10,-1 19,-1 28,-2l0 -505c-9,1 -19,2 -27,2l-3 1 0 504zm30 -2l2 0c10,-1 19,-1 28,-2l0 -507c-9,1 -18,2 -27,3l-3 1 0 505zm30 -2l2 0c10,-1 19,-2 28,-3l0 -508c-9,1 -18,2 -27,4l-3 0 0 507zm30 -3l2 0c10,-1 19,-2 28,-3l0 -510c-9,2 -18,3 -27,5l-3 0 0 508zm30 -3l2 -1c10,-1 19,-2 28,-3l0 -510c-9,1 -18,3 -27,4l-3 0 0 510zm30 -4l2 0c10,-1 19,-3 28,-4l0 -511c-9,1 -18,3 -27,4l-3 1 0 510zm30 -4l2 0c10,-2 19,-3 28,-5l0 -512c-9,2 -18,4 -27,5l-3 1 0 511zm30 -5l2 0c10,-1 19,-3 28,-5l0 -512c-9,2 -18,3 -27,5l-3 0 0 512zm30 -5l2 0c10,-1 19,-3 28,-5l0 -513c-9,2 -18,4 -27,5l-3 1 0 512zm30 -5l2 0c10,-2 19,-4 28,-6l0 -514c-8,2 -18,4 -27,6l-3 1 0 513zm30 -6l2 0c10,-2 19,-4 28,-6l0 -515c-8,2 -17,5 -27,7l-3 0 0 514zm30 -6l2 0c10,-2 19,-4 28,-6l0 -517 -16 5c-3,1 -7,2 -11,3l-3 0 0 515zm30 -6l2 -1c10,-2 19,-4 28,-6l0 -519c-9,3 -18,6 -27,8l-3 1 0 517zm30 -7l2 0c10,-3 19,-5 28,-7l0 -521c-9,3 -18,6 -27,9l-3 0 0 519zm30 -7l2 -1c10,-2 19,-4 28,-7l0 -522c-9,3 -18,6 -27,9l-3 0 0 521zm30 -8l2 0c10,-3 19,-5 28,-8l0 -524c-9,3 -18,6 -27,9l-3 1 0 522zm30 -8l2 0c10,-3 19,-5 28,-8l0 -526c-9,3 -18,6 -27,9l-3 1 0 524zm30 -8l2 0c10,-3 19,-6 28,-9l0 -528c-9,3 -18,7 -27,10l-3 1 0 526zm30 -9l2 0c10,-3 19,-6 28,-8l0 -531c-9,3 -18,7 -27,10l-3 1 0 528zm30 -8l2 -1c10,-3 19,-6 28,-9l0 -533c-9,4 -18,8 -27,11l-3 1 0 531zm30 -10l2 0c10,-3 19,-6 28,-9l0 -535c-9,3 -18,7 -27,11l-3 0 0 533zm30 -9l2 -1c10,-3 19,-6 28,-9l0 -538c-9,4 -18,8 -27,12l-3 1 0 535zm30 -10l2 -1c10,-3 19,-7 28,-10l0 -539c-9,3 -18,7 -27,11l-3 1 0 538zm30 -11l2 0c10,-4 19,-7 28,-11l0 -542c-9,4 -18,9 -27,13l-3 1 0 539zm30 -11l2 0c10,-4 19,-7 28,-11l0 -544c-9,4 -18,8 -27,12l-3 1 0 542zm30 -11l2 0c10,-4 19,-7 28,-11l0 -547c-9,4 -18,8 -27,13l-3 1 0 544zm30 -11l2 -1c10,-3 19,-7 28,-11l0 -550c-9,5 -18,9 -27,14l-3 1 0 547zm30 -12l2 -1c10,-3 19,-7 28,-11l0 -553c-9,5 -18,10 -27,14l-3 1 0 550zm30 -12l2 -1c10,-4 19,-7 28,-11l0 -556c-9,5 -18,9 -27,14l-3 1 0 553zm30 -12l2 -1c10,-4 19,-8 28,-12l0 -559c-9,5 -18,10 -27,15l-3 1 0 556zm30 -13l2 -1c10,-4 19,-8 28,-13l0 -561c-9,5 -18,10 -27,15l-3 1 0 559zm30 -14l2 -1c10,-4 19,-8 28,-12l0 -565c-9,5 -18,10 -27,15l-3 2 0 561zm30 -13l2 -1c10,-5 19,-9 28,-14l0 -568c-9,6 -18,11 -27,16l-3 2 0 565zm30 -15l2 0 17 -9 11 -5 0 -572c-9,6 -18,11 -27,17l-3 1 0 568zm30 -14l2 -1c10,-5 19,-9 28,-14l0 -575c-9,6 -18,11 -27,17l-3 1 0 572zm30 -15l2 -1c10,-5 19,-10 28,-14l0 -579c-9,6 -18,12 -27,17l-3 2 0 575zm30 -15l2 -1c10,-5 19,-10 28,-15l0 -583c-9,6 -18,12 -27,18l-3 2 0 579zm30 -16l2 -1c10,-5 19,-10 28,-15l0 -587c-9,6 -18,13 -27,19l-3 1 0 583zm30 -16l2 -1c10,-5 19,-11 28,-16l0 -591c-9,7 -18,13 -27,19l-3 2 0 587zm30 -17l2 -1c10,-5 19,-10 28,-16l0 -595c-9,7 -18,13 -27,20l-3 1 0 591zm30 -17l2 -1c10,-5 19,-10 28,-16l0 -600c-9,7 -18,13 -27,20l-3 2 0 595zm30 -17l2 -1c10,-6 19,-11 28,-17l0 -605c-9,7 -18,14 -27,21l-3 2 0 600zm30 -18l2 -1c10,-5 19,-11 28,-17l0 -610c-9,7 -18,14 -27,21l-3 2 0 605zm30 -18l2 -1c10,-6 19,-12 28,-17l0 -617c-9,8 -18,15 -27,22l-3 3 0 610zm30 -18l3 -2c9,-6 18,-12 27,-18l0 -622c-9,8 -18,16 -27,23l-3 2 0 617zm30 -20l3 -1c9,-6 18,-12 27,-18l0 -629c-9,8 -18,16 -27,24l-3 2 0 622zm30 -19l3 -2c9,-6 18,-12 27,-18l0 -636c-9,9 -18,17 -27,25l-3 2 0 629zm30 -20l3 -2c9,-6 18,-13 27,-19l0 -642c-9,8 -18,17 -27,25l-3 2 0 636zm30 -21l3 -2c9,-7 18,-13 27,-20l0 -649c-9,9 -18,17 -27,26l-3 3 0 642zm30 -22l3 -2c6,-4 12,-9 18,-13l9 -7 0 -657c-9,9 -18,18 -27,27l-3 3 0 649zm30 -22l3 -2c8,-6 17,-13 27,-21l0 -619 -1 -1c-25,-18 -5,-8 -26,-15l-1 -1 -2 2 0 657zm30 -23l3 -2c8,-7 18,-14 27,-22l0 -572 -27 -21 -3 -2 0 619zm30 -24l3 -2c9,-7 18,-14 27,-22l0 -524 -27 -21 -3 -3 0 572zm30 -24l3 -1c9,-8 18,-15 27,-23l0 -476 -27 -22 -3 -2 0 524zm30 -24l3 -2c9,-7 18,-15 27,-22l0 -428 -27 -22 -3 -2 0 476zm30 -24l3 -2c9,-8 18,-15 27,-23l0 -379 -27 -22 -3 -2 0 428zm30 -25l3 -2c9,-8 18,-16 27,-24l0 -329 -11 -9 -16 -13 -3 -2 0 379zm30 -26l3 -2c9,-8 18,-16 27,-23l0 -281c-9,-7 -18,-14 -27,-21l-3 -2 0 329zm30 -25l3 -3c9,-8 18,-16 27,-24l0 -230c-9,-7 -18,-14 -27,-22l-3 -2 0 281zm30 -27l3 -2c9,-9 19,-17 27,-26l0 -177 -7 -6c-7,-6 -13,-11 -20,-17l-3 -2 0 230zm30 -28l3 -2c10,-9 19,-18 27,-26l0 -126c-9,-7 -18,-14 -27,-21l-3 -2 0 177zm30 -28l3 -3c10,-10 19,-20 27,-29l0 -71c-9,-8 -18,-14 -27,-21l-3 -2 0 126zm30 -32l3 -3c13,-15 23,-28 27,-38l0 -4c-9,-9 -18,-17 -27,-24l-3 -2 0 71zm30 -41c1,-1 1,-2 2,-3l-2 -1 0 4zm-3866 -3609l2 2 24 23 0 -63c-10,12 -18,23 -24,33l-2 5zm26 25l6 5 24 23 0 -123c-8,8 -17,17 -24,25 -2,3 -4,5 -6,7l0 63zm30 28l6 6 24 23 0 -181c-8,7 -16,15 -24,23l-6 6 0 123zm30 29l6 5 24 23 0 -236c-8,7 -16,14 -24,21l-6 6 0 181zm30 28l6 6 20 19 4 3 0 -290c-8,7 -16,14 -24,21l-6 5 0 236zm30 28l6 5 24 22 0 -342c-8,7 -16,14 -24,20l-6 5 0 290zm30 27l6 5 24 22 0 -392c-8,6 -16,12 -24,19l-6 4 0 342zm30 27l6 5 2 2c8,7 15,14 22,21l0 -443c-8,6 -16,12 -24,18l-6 5 0 392zm30 28l6 6c8,9 16,17 24,26l0 -498c-8,6 -16,12 -24,18l-6 5 0 443zm30 32l6 5c4,4 8,8 12,12 4,-2 8,-4 12,-7l0 -530c-8,6 -16,12 -24,18l-6 4 0 498zm30 10c2,-1 4,-2 6,-4 7,-5 16,-12 24,-20l0 -527c-8,5 -16,11 -24,17l-6 4 0 530zm30 -24l6 -5c7,-7 16,-15 24,-23l0 -520c-8,5 -16,11 -24,16l-6 5 0 527zm30 -28l6 -6c8,-7 16,-15 24,-23l0 -512c-8,5 -16,11 -24,16l-6 5 0 520zm30 -29l6 -6c8,-7 16,-15 24,-23l0 -503c-8,5 -16,10 -24,16l-6 4 0 512zm30 -29l6 -5c8,-7 16,-14 24,-22l0 -496c-8,5 -16,10 -24,16l-6 4 0 503zm30 -27l6 -5c8,-7 16,-14 24,-21l0 -489c-8,5 -16,10 -24,15l-6 4 0 496zm30 -26l6 -5c8,-6 16,-13 24,-19l0 -484c-7,5 -15,10 -24,15l-6 4 0 489zm30 -24l6 -5c8,-6 16,-12 24,-19l0 -479c-7,5 -15,10 -24,15l-6 4 0 484zm30 -24l6 -4c8,-6 16,-12 24,-18l0 -475c-7,5 -15,10 -24,15l-6 3 0 479zm30 -22l6 -4c8,-6 16,-11 24,-17l0 -470c-7,4 -15,8 -24,13l-6 3 0 475zm30 -21l6 -4c8,-5 16,-11 24,-16l0 -466 -3 1c-6,4 -13,7 -21,11l-6 4 0 470zm30 -20l6 -4c8,-5 16,-10 24,-15l0 -462c-8,4 -16,8 -24,12l-6 3 0 466zm30 -19l6 -4c8,-5 16,-10 24,-15l0 -457c-8,4 -16,8 -24,11l-6 3 0 462zm30 -19l6 -3c8,-5 16,-10 24,-14l0 -453c-8,4 -16,7 -24,11l-6 2 0 457zm30 -17l6 -4c8,-4 16,-9 24,-13l0 -449c-8,4 -16,7 -23,10l-7 3 0 453zm30 -17l6 -3c8,-5 16,-9 24,-13l0 -445c-8,3 -16,6 -23,10l-7 2 0 449zm30 -16l6 -3c8,-5 16,-9 24,-13l0 -442 -23 10 -7 3 0 445zm30 -16l6 -3c8,-4 16,-8 24,-12l0 -438 -23 9 -7 2 0 442zm30 -15l6 -3c8,-4 16,-7 24,-11l0 -436c-8,3 -16,6 -23,9l-7 3 0 438zm30 -14l6 -3c8,-4 16,-7 24,-11l0 -433 -23 9 -7 2 0 436zm30 -14l6 -3c8,-3 16,-7 24,-11l0 -430 -23 9 -7 2 0 433zm30 -14l6 -2c8,-4 16,-7 24,-10l0 -429 -23 9 -7 2 0 430zm30 -12l6 -3c8,-3 16,-7 24,-10l0 -426c-8,2 -16,5 -23,8l-7 2 0 429zm30 -13l6 -2c8,-3 16,-7 24,-10l0 -424 -23 8 -7 2 0 426zm30 -12l6 -2c8,-3 16,-6 24,-10l0 -422c-8,2 -15,5 -23,7l-7 3 0 424zm30 -12l6 -2c8,-3 16,-6 24,-9l0 -421c-8,3 -15,5 -23,8l-7 2 0 422zm30 -11l6 -2c7,-2 14,-5 21,-7l3 -2 0 -419c-8,2 -15,5 -23,7l-7 2 0 421zm30 -11l6 -2c8,-2 16,-5 24,-8l0 -418c-8,2 -15,5 -23,7l-7 2 0 419zm30 -10l6 -1c8,-3 16,-5 24,-7l0 -418c-7,2 -15,4 -23,6l-7 2 0 418zm30 -8l6 -2c8,-2 16,-4 24,-6l0 -418c-7,2 -15,4 -23,6l-7 2 0 418zm30 -8l6 -2c8,-2 16,-4 24,-5l0 -419c-7,2 -15,4 -23,6l-7 2 0 418zm30 -7l6 -2c8,-2 16,-3 24,-5l0 -419c-7,2 -15,4 -23,6l-7 1 0 419zm30 -7l6 -1c8,-2 16,-4 24,-5l0 -419c-7,1 -15,3 -23,5l-7 1 0 419zm30 -6l6 -1 24 -5 0 -419c-7,1 -15,3 -23,4l-7 2 0 419zm30 -6l6 -1 24 -5 0 -418c-7,1 -15,2 -23,4l-7 1 0 419zm30 -6l6 -1c8,-2 16,-3 24,-5l0 -416c-7,1 -15,2 -23,3l-7 1 0 418zm30 -6l6 -1c8,-2 16,-4 24,-6l0 -411c-7,0 -15,1 -23,2l-7 0 0 416zm30 -7l6 -1c8,-2 16,-3 24,-5l0 -406c-7,0 -15,0 -23,0l-7 1 0 411zm30 -6l6 -2c8,-2 16,-4 24,-6l0 -88 0 -308c-7,-1 -15,-1 -23,-2l-7 0 0 406zm30 -96l3 -307 -3 -1 0 308zm325 4254l5 0 0 -245 -5 245zm5 0l3 0c9,0 18,-1 27,-1l0 -401c-9,0 -18,1 -26,1l-1 30 -3 126 0 245zm30 -1l3 0c9,-1 18,-1 27,-2l0 -402c-9,1 -18,2 -27,3l-3 0 0 401zm30 -2l3 0c9,-1 18,-1 27,-2l0 -403c-9,1 -18,2 -27,3l-3 0 0 402zm30 -2l3 -1c9,0 18,-2 27,-3l0 -404c-9,2 -18,3 -27,4l-3 1 0 403zm30 -4l3 0c9,-1 18,-2 27,-4l0 -405c-9,2 -18,4 -27,5l-3 0 0 404zm30 -4l3 0c9,-1 18,-3 27,-4l0 -407c-9,2 -18,4 -27,6l-3 0 0 405zm30 -4l3 -1c9,-1 18,-3 27,-5l0 -408c-9,3 -18,5 -27,7l-3 0 0 407zm30 -6l3 0c9,-2 18,-4 27,-5l0 -410c-9,2 -18,5 -27,7l-3 0 0 408zm30 -5l3 -1c9,-2 18,-4 27,-6l0 -411c-9,3 -18,5 -27,7l-3 1 0 410zm30 -7l3 0c9,-2 18,-4 27,-7l0 -412c-9,2 -18,5 -27,7l-3 1 0 411zm30 -7l3 0c9,-2 18,-5 27,-7l0 -414c-9,2 -18,5 -27,8l-3 1 0 412zm30 -7l3 -1c9,-2 18,-4 27,-7l0 -416c-9,3 -18,6 -27,9l-3 1 0 414zm30 -8l3 0c9,-3 18,-5 27,-8l0 -418c-9,3 -18,6 -27,9l-3 1 0 416zm30 -8l3 0c9,-3 18,-6 27,-8l0 -421c-9,4 -18,7 -27,10l-3 1 0 418zm30 -8l3 -1c9,-3 18,-6 27,-8l0 -423c-9,4 -18,7 -27,10l-3 1 0 421zm30 -9l3 -1c9,-3 18,-6 27,-9l0 -424c-9,3 -18,7 -27,10l-3 1 0 423zm30 -10l3 0c9,-3 18,-6 27,-9l0 -427c-9,3 -18,7 -27,11l-3 1 0 424zm30 -9l3 -1c9,-3 18,-6 27,-9l0 -430c-9,4 -18,8 -27,12l-3 1 0 427zm30 -10l3 -1c9,-3 18,-7 27,-10l0 -432c-9,4 -18,8 -27,12l-3 1 0 430zm30 -11l3 -1c9,-3 18,-6 27,-10l0 -434c-9,4 -18,8 -27,12l-3 1 0 432zm30 -11l3 -1c9,-3 18,-6 27,-10l0 -437c-9,4 -18,9 -27,13l-3 1 0 434zm30 -11l3 -1c9,-3 18,-7 27,-10l0 -440c-9,4 -18,8 -27,13l-3 1 0 437zm30 -11l3 -1c9,-4 18,-8 27,-11l0 -443c-9,4 -18,9 -27,13l-3 2 0 440zm30 -12l3 -1c9,-4 18,-8 27,-11l0 -446c-9,4 -18,9 -27,14l-3 1 0 443zm30 -12l3 -1c9,-4 18,-8 27,-12l0 -449c-9,5 -18,9 -27,14l-3 2 0 446zm30 -13l3 -1c9,-4 18,-8 27,-12l0 -453c-9,5 -18,10 -27,15l-3 2 0 449zm30 -13l3 -1c9,-4 18,-8 27,-13l0 -456c-9,5 -18,10 -27,16l-3 1 0 453zm30 -14l3 -1c9,-4 18,-8 27,-13l0 -460c-8,5 -18,11 -27,16l-3 2 0 456zm30 -14l3 -1 11 -5c5,-2 11,-5 16,-8l0 -465c-8,6 -17,12 -27,17l-3 2 0 460zm30 -14l3 -1c9,-5 18,-10 27,-15l0 -468c-8,6 -17,11 -27,17l-3 2 0 465zm30 -16l3 -1c9,-5 18,-10 27,-16l0 -472c-8,6 -17,12 -27,19l-3 2 0 468zm30 -17l3 -1c9,-5 18,-11 27,-16l0 -477 -4 3c-7,5 -15,11 -23,17l-3 2 0 472zm30 -17l3 -2c9,-5 18,-11 27,-16l0 -483c-10,8 -19,15 -27,21l-3 3 0 477zm30 -18l3 -2c9,-5 18,-11 27,-17l0 -487c-9,7 -18,14 -27,21l-3 2 0 483zm30 -19l3 -2c9,-5 18,-11 27,-17l0 -492c-9,7 -18,14 -27,21l-3 3 0 487zm30 -19l3 -2c9,-5 18,-11 27,-17l0 -498c-8,7 -17,15 -27,22l-3 3 0 492zm30 -19l3 -2c9,-6 18,-12 27,-18l0 -505c-8,8 -17,16 -27,24l-3 3 0 498zm30 -20l3 -2c9,-6 18,-12 27,-19l0 -514 -4 5c-6,7 -13,14 -22,22l-4 3 0 505zm30 -21l3 -2c9,-6 18,-12 27,-18l0 -524c-9,8 -18,17 -26,27l-4 3 0 514zm30 -20l3 -2c9,-7 18,-13 27,-20l0 -510 -8 -8c-6,4 -13,9 -18,14l-4 2 0 524zm30 -22l3 -2c9,-6 18,-13 27,-19l0 -460 -26 -26 -4 -3 0 510zm30 -21l3 -2c9,-7 18,-14 27,-21l0 -408 -26 -26 -4 -3 0 460zm30 -23l3 -2c9,-7 18,-14 27,-21l0 -356 -26 -26 -4 -3 0 408zm30 -23l3 -2c9,-7 19,-14 27,-21l0 -304 -27 -26 -3 -3 0 356zm30 -23l3 -3c9,-7 19,-15 27,-22l0 -250 -27 -26 -3 -3 0 304zm30 -25l3 -2c10,-8 19,-16 27,-24l0 -195 -27 -26 -3 -3 0 250zm30 -26l3 -2c10,-9 19,-17 27,-25l0 -139 -27 -26 -3 -3 0 195zm30 -27l3 -3c10,-9 19,-18 27,-27l0 -80 -27 -26 -3 -3 0 139zm30 -30l3 -3c11,-11 20,-22 27,-32l0 -16 -27 -26 -3 -3 0 80zm30 -35l3 -4c2,-2 3,-3 5,-5l-5 -5 -3 -2 0 16z"/>
  <path fill="none" stroke="#2B2A29" stroke-width="7.62" d="M5415 1748c2063,0 3736,1672 3736,3736 0,2063 -1673,3736 -3736,3736 -2063,0 -3736,-1673 -3736,-3736 0,-2064 1673,-3736 3736,-3736z"/>
 </g>
</svg>
