<?xml version="1.0" encoding="UTF-8"?>
<!DOCTYPE svg PUBLIC "-//W3C//DTD SVG 1.1//EN" "http://www.w3.org/Graphics/SVG/1.1/DTD/svg11.dtd">
<!-- Creator: CorelDRAW X8 -->
<svg xmlns="http://www.w3.org/2000/svg" xml:space="preserve" width="297mm" height="210mm" version="1.1" shape-rendering="geometricPrecision" text-rendering="geometricPrecision" image-rendering="optimizeQuality" fill-rule="evenodd" clip-rule="evenodd"
viewBox="0 0 29700 21000"
 xmlns:xlink="http://www.w3.org/1999/xlink">
 <g id="Layer_x0020_1">
  <metadata id="CorelCorpID_0Corel-Layer"/>
  <polygon fill="none" stroke="#2B2A29" stroke-width="20" points="500,500 3100,500 3100,6282 500,6282 "/>
  <polygon fill="none" stroke="#2B2A29" stroke-width="20" points="790,800 2810,800 2810,1180 790,1180 "/>
  <path fill="none" stroke="#2B2A29" stroke-width="20" d="M1800 2400c110,0 200,90 200,200 0,110 -90,200 -200,200 -110,0 -200,-90 -200,-200 0,-110 90,-200 200,-200z"/>
  <path fill="none" stroke="#2B2A29" stroke-width="20" d="M1800 5375c124,0 225,101 225,225 0,124 -101,225 -225,225 -124,0 -225,-101 -225,-225 0,-124 101,-225 225,-225z"/>
 </g>
</svg>
